<svg version="1.2" xmlns="http://www.w3.org/2000/svg" viewBox="0 0 32 32" width="32" height="32">
	<style>
		.s0 { fill: #ffffff } 
	</style>
	<path class="s0" d="m30.63 13.83q-0.14-0.19-0.32-0.35-0.19-0.15-0.4-0.26-0.21-0.11-0.44-0.16-0.23-0.06-0.47-0.06h-2v-2q0-0.4-0.15-0.77-0.16-0.36-0.44-0.64-0.28-0.28-0.64-0.44-0.37-0.15-0.77-0.15h-8.67l-3.46-2.6q-0.13-0.1-0.27-0.17-0.15-0.08-0.3-0.13-0.15-0.05-0.31-0.07-0.16-0.03-0.32-0.03h-6.67q-0.4 0-0.77 0.15-0.36 0.16-0.64 0.44-0.28 0.28-0.44 0.64-0.15 0.37-0.15 0.77v18q0 0.2 0.08 0.38 0.07 0.19 0.21 0.33 0.14 0.14 0.33 0.21 0.18 0.08 0.38 0.08h22.39q0.15 0 0.3-0.05 0.15-0.05 0.28-0.14 0.13-0.09 0.22-0.22 0.1-0.12 0.15-0.27l3.56-10.69q0.07-0.22 0.09-0.46 0.02-0.24-0.01-0.47-0.04-0.24-0.13-0.46-0.09-0.22-0.22-0.41zm-18.96-5.83l3.73 2.8q0.06 0.05 0.14 0.09 0.07 0.03 0.14 0.06 0.08 0.02 0.16 0.04 0.08 0.01 0.16 0.01h9v2h-16.28q-0.31 0-0.61 0.1-0.3 0.09-0.56 0.28-0.25 0.18-0.44 0.44-0.19 0.25-0.29 0.55l-1.82 5.47v-11.84zm14 17h-20.28l3.33-10h20.28z"/>
</svg>