<svg version="1.2" xmlns="http://www.w3.org/2000/svg" viewBox="0 0 962 1024" width="32" height="32">
	<style>
		.s0 { opacity: 1;fill: #ffffff;stroke: #ffffff;paint-order:stroke fill markers;stroke-linejoin: round;stroke-width: 6 } 
	</style>
	<path id="Path 0" fill-rule="evenodd" class="s0" d="m480.5 111.1c8.8-0.07 18.48 0.34 21.5 0.9 3.02 0.57 7.98 2.25 11 3.74 3.02 1.49 7.75 4.99 10.5 7.79 2.85 2.89 7.34 9.36 10.42 15.02 2.99 5.47 7.08 12.43 9.11 15.45 2.02 3.03 6.39 8.2 9.69 11.5 3.3 3.3 8.66 7.44 11.89 9.2 3.24 1.76 8.59 4.18 11.89 5.38 5.15 1.88 8.91 2.27 26.55 2.8 17.16 0.52 20.99 0.91 23.25 2.37 1.48 0.96 3.6 3.21 4.7 5 1.87 3.05 1.99 5.02 1.99 32.25 0 27.23-0.12 29.2-1.99 32.25-1.1 1.79-3.46 4.15-5.25 5.25-3.21 1.97-5.09 1.99-144 2-132.01 0-140.97-0.11-144.37-1.75-1.99-0.96-4.57-3.32-5.75-5.25-2.02-3.31-2.15-4.96-2.42-31-0.28-26.98-0.25-27.58 2-31.94 1.26-2.44 3.56-5.37 5.11-6.5 2.55-1.86 4.78-2.12 23-2.69 14.95-0.46 21.6-1.07 25.68-2.36 3.02-0.95 7.75-2.86 10.5-4.23 2.75-1.38 7.41-4.37 10.37-6.64 2.95-2.28 7.74-7.29 10.64-11.14 2.91-3.85 7.92-11.92 11.14-17.93 3.22-6.01 8.1-13.37 10.85-16.35 3.08-3.33 7.31-6.54 11-8.33 3.3-1.6 8.02-3.31 10.5-3.79 2.48-0.49 11.7-0.93 20.5-1zm-173.5 87.9v51l-20.25 0.35c-18.55 0.32-20.92 0.56-28.25 2.94-4.4 1.43-11.37 4.79-15.5 7.47-4.12 2.68-10.12 7.77-13.32 11.31-3.2 3.53-7.36 9.58-9.24 13.43-1.88 3.85-4.1 9.7-4.93 13-1.33 5.29-1.48 36.01-1.01 513l3.02 7.5c1.66 4.13 5.08 10.42 7.6 14 2.52 3.58 6.78 8.45 9.48 10.84 2.69 2.39 7.6 5.84 10.9 7.66 3.3 1.83 9.15 4.38 20 8l323 0.46 1.4 3.27c0.77 1.8 3.05 6.87 5.06 11.27 2.02 4.4 5.62 10.92 8 14.5 2.38 3.58 6.95 9.65 10.15 13.5 3.2 3.85 5.53 7.34 5.19 7.75-0.35 0.41-79.87 0.75-176.72 0.76-150.82 0.01-177.3-0.2-184.58-1.47-4.67-0.81-11.42-2.43-15-3.6-3.57-1.17-9.87-3.69-14-5.6-4.12-1.91-10.65-5.57-14.5-8.13-3.85-2.56-11.2-8.72-16.32-13.68-5.13-4.97-11.49-12.18-14.13-16.03-2.64-3.85-6.37-10.15-8.29-14-1.93-3.85-4.73-10.6-6.23-15-1.51-4.4-3.46-11.15-4.34-15-1.43-6.28-1.63-32.51-1.94-256.5-0.25-182.66-0.04-252.18 0.8-259.5 0.63-5.5 2.01-13.37 3.08-17.5 1.06-4.12 3.49-11.1 5.41-15.5 1.91-4.4 5.61-11.54 8.22-15.88 2.6-4.33 8.79-12.15 13.74-17.38 4.95-5.22 11.93-11.69 15.5-14.37 3.58-2.69 10.33-6.85 15-9.25 4.68-2.4 11.43-5.36 15-6.57 3.58-1.22 9.43-2.89 13-3.73 3.58-0.84 11.68-1.86 18-2.27 6.33-0.41 17.24-0.82 37-1.05zm348.2 0.8l25.15 0.45c21.88 0.38 26.19 0.73 33.15 2.63 4.4 1.21 11.83 3.76 16.5 5.69 4.67 1.92 11.65 5.47 15.5 7.89 3.85 2.41 10.38 7.28 14.5 10.81 4.13 3.54 10.06 9.53 13.18 13.33 3.12 3.79 7.98 10.72 10.79 15.4 2.81 4.68 6.44 11.99 8.07 16.25 1.63 4.26 3.96 11.46 7.42 24.25l0.54 395.5-2.75-1.87c-1.51-1.04-5.9-3.46-9.75-5.39-3.85-1.93-10.83-4.85-15.5-6.48-4.67-1.64-11.76-3.71-23-6.26l-0.02-182.25c-0.01-155.68-0.23-183.27-1.47-189.25-0.8-3.85-3.38-10.81-5.73-15.48-3.12-6.17-6.19-10.38-11.3-15.5-3.87-3.86-9.49-8.48-12.5-10.26-3.02-1.79-8.85-4.46-12.98-5.94-7.1-2.55-8.62-2.71-50-3.32zm-62.2 161.25c1.92-0.03 5.06 0.74 6.98 1.7 1.91 0.96 4.51 3.32 5.78 5.25 1.53 2.34 2.29 4.99 2.29 8 0 3.01-0.76 5.66-2.29 8-1.27 1.92-3.87 4.29-5.78 5.25-1.92 0.96-5.51 1.74-7.98 1.73-2.48-0.02-6.41-0.91-8.75-2-3.8-1.77-4.55-1.83-7-0.57-1.51 0.78-4.17 2.92-5.89 4.75-1.73 1.84-4.17 5.36-5.42 7.84-1.54 3.04-2.42 6.93-2.74 12-0.42 6.85-0.09 8.59 3.79 20 2.34 6.87 8.75 25.32 14.25 41 7.05 20.11 10.79 29.38 12.69 31.5 1.48 1.65 3.47 5.7 4.41 9 0.94 3.3 2.8 8.92 4.14 12.5 1.35 3.57 3.81 8.41 5.48 10.75 1.67 2.34 4.84 5.15 7.04 6.25 2.22 1.11 6 2 8.5 2 2.47 0 5.74-0.48 7.25-1.06 1.51-0.59 4.25-2.5 6.09-4.25 1.83-1.76 4.37-5.22 5.64-7.69 1.27-2.48 3.68-9.23 5.36-15 2.56-8.8 3.61-10.99 6.5-13.5q3.43-3 5.18-8.5c0.96-3.03 7.16-20.35 13.77-38.5 11.7-32.12 12.03-33.23 12.11-41.5 0.08-6.88-0.35-9.45-2.21-13.5-1.26-2.75-3.51-6.28-5-7.84-1.48-1.56-3.93-3.7-5.44-4.75-2.62-1.82-3-1.83-8-0.28-3.34 1.04-6.89 1.42-9.75 1.06-2.48-0.31-5.57-1.38-6.88-2.38-1.31-1-3.33-3.08-4.5-4.63-1.48-1.98-2.12-4.29-2.12-7.68 0-3.39 0.64-5.7 2.12-7.68 1.17-1.55 3.34-3.72 4.82-4.82 2.03-1.5 4.27-2 8.95-2 5.25 0 6.97 0.47 10.68 2.94 2.44 1.61 7.35 4.41 10.93 6.21 3.57 1.8 8.75 5.23 11.5 7.63 2.75 2.39 6.46 6.69 8.25 9.54 1.79 2.85 4.2 7.99 5.36 11.43 1.59 4.69 2.1 8.61 2.01 25.25l-14.6 43c-12.32 36.3-14.65 44.09-14.92 50-0.2 4.45-1.39 10.09-3.27 15.5-1.62 4.67-4.5 11.2-6.39 14.5-1.89 3.3-5.91 8.63-8.94 11.85-3.95 4.21-7.76 6.97-21.5 13.71l-0.81 10.22c-0.45 5.62-1.73 14.94-2.84 20.72-1.12 5.77-3.8 15.9-5.97 22.5-2.16 6.6-5.9 16.05-8.31 21-2.4 4.95-7.48 13.72-11.29 19.5-3.81 5.77-10.49 14.75-14.85 19.93-4.36 5.19-12.21 13.22-17.43 17.84-5.23 4.62-13.55 11.08-18.5 14.36-4.95 3.28-14.18 8.6-20.5 11.81-6.33 3.22-15.55 7.27-20.5 9.01-4.95 1.73-12.38 4-16.5 5.04-4.13 1.04-12.68 2.65-19 3.57-8.9 1.29-15.91 1.55-31 1.17-12.05-0.31-22.94-1.15-28.5-2.2-4.95-0.94-14.18-3.27-20.5-5.19-6.33-1.92-16.9-6.08-23.5-9.25-6.6-3.17-15.15-7.7-19-10.07-3.85-2.37-10.38-6.87-14.5-10.01-4.13-3.13-11.33-9.3-16-13.71-4.68-4.4-11.04-11.11-14.14-14.91-3.09-3.79-8.17-10.72-11.28-15.39-3.1-4.68-8.06-13.23-11.01-19-2.95-5.78-6.79-14.55-8.52-19.5-1.74-4.95-4.01-12.38-5.05-16.5-1.04-4.13-2.64-12.68-3.56-19-1.29-8.88-1.56-16.05-1.19-31.5 0.36-15.21 1-22.64 2.69-31 1.23-6.05 3.58-15.28 5.24-20.5 1.66-5.23 5.6-14.9 8.75-21.5 3.16-6.6 9.49-17.63 14.07-24.5 6.53-9.81 11.35-15.51 22.41-26.5 7.96-7.92 18.22-16.92 23.59-20.72 5.22-3.69 14.67-9.39 21-12.66 6.32-3.27 16-7.51 21.5-9.42 5.5-1.91 11.07-3.64 12.37-3.84 2.21-0.34 2.4 0.01 2.81 5.14 0.24 3.02 1.53 7.97 2.88 11 1.35 3.02 2.33 5.55 2.19 5.61-0.14 0.07-4.08 1.36-8.75 2.89-4.68 1.52-13 4.87-18.5 7.44-5.5 2.57-14.02 7.35-18.93 10.62-4.91 3.26-12.56 9.11-17 12.98-4.44 3.88-11.27 10.85-15.19 15.5-3.91 4.65-9.25 11.61-11.87 15.46-2.61 3.85-7.01 11.5-9.76 17-2.75 5.5-6.49 14.5-8.32 20-1.82 5.5-4.34 14.72-5.59 20.5-1.97 9.07-2.27 13.35-2.25 31.5 0.01 17.68 0.36 22.58 2.17 31 1.18 5.5 3.53 14.27 5.21 19.5 1.68 5.22 5.74 14.9 9.02 21.5 3.28 6.6 8.9 15.94 12.49 20.75 3.58 4.81 10.23 12.63 14.77 17.37 4.54 4.74 12.52 11.85 17.75 15.79 5.22 3.95 14 9.7 19.5 12.78 5.5 3.09 14.05 7.22 19 9.18 4.95 1.95 13.95 4.68 20 6.05 6.05 1.37 15.5 3.03 21 3.68 5.92 0.7 15.71 0.95 24 0.62 7.94-0.32 18.75-1.5 25-2.73 6.05-1.19 14.6-3.31 19-4.7 4.4-1.4 11.82-4.31 16.5-6.48 4.67-2.17 12.77-6.76 18-10.19 5.22-3.44 13.55-9.66 18.5-13.83 4.95-4.16 11.51-10.43 14.58-13.93 3.07-3.5 8.41-10.19 11.86-14.86 3.46-4.68 8.93-13.9 12.15-20.5 3.22-6.6 7.41-16.73 9.3-22.5 1.9-5.78 4.12-14.78 4.95-20 0.82-5.23 1.76-12.76 2.66-24l-4.75-1.48c-2.61-0.82-6.78-2.77-9.25-4.35-2.48-1.57-6.41-4.73-8.75-7.01-2.34-2.29-6.07-6.97-8.28-10.41-2.22-3.44-5.12-9.18-6.45-12.75-1.33-3.58-3.13-8.98-4-12-0.87-3.03-1.49-7.75-1.38-10.5 0.17-4.04-2.33-12.86-12.97-45.75-7.24-22.41-13.71-43.79-14.36-47.5-0.91-5.17-0.92-8.51-0.03-14.25 0.72-4.66 2.54-10.34 4.8-15 2.36-4.87 5.61-9.48 9.28-13.14 3.66-3.66 8.27-6.9 13.14-9.25 4.12-1.99 8.2-3.62 9.05-3.62 0.85 0.01 1.98-0.44 2.5-0.99 0.52-0.55 2.75-1.66 4.95-2.46 2.2-0.8 5.57-1.47 7.5-1.49zm-159.5 10.98c2.75-0.01 6.57 0.41 8.5 0.94 1.92 0.53 5.47 2.66 7.89 4.74 2.41 2.09 5.27 5.59 6.36 7.79 1.08 2.2 2.19 6.02 2.46 8.5 0.28 2.47 0 6.41-0.6 8.75-0.61 2.34-2.57 6.14-4.36 8.44-1.86 2.41-5.6 5.41-8.75 7.03-3.95 2.04-6.91 2.83-10.5 2.8-3.11-0.02-6.9-0.94-10-2.4-2.75-1.3-6.21-3.66-7.69-5.24-1.48-1.59-3.61-4.91-4.73-7.38-1.26-2.78-2.04-6.61-2.04-10 0-3.17 0.77-7.19 1.81-9.5 1-2.2 3.35-5.54 5.23-7.42 1.88-1.87 5.22-4.23 7.42-5.22 2.2-1 6.25-1.82 9-1.83zm87.25 133.01c1.24-0.02 3.71 0.56 5.5 1.29 1.79 0.74 4.49 2.76 6 4.5 1.51 1.74 3.02 4.86 3.36 6.92 0.34 2.06 0.3 5.32-0.07 7.25-0.55 2.82-4 6.78-17.86 20.5-9.45 9.35-31.58 31-49.18 48.12-27.8 27.03-32.59 31.29-36.5 32.41-3.63 1.04-5.28 1.04-8.5 0.04-3.16-0.99-8.81-6.03-26.81-23.91-12.54-12.46-23.75-24.24-24.9-26.16-1.2-2-2.1-5.22-2.1-7.5 0-2.2 0.74-5.46 1.65-7.25 0.91-1.79 3.12-4.15 4.91-5.25 1.79-1.1 4.6-2.27 6.25-2.61 1.65-0.34 4.8-0.06 7 0.62 3.09 0.96 7.89 5.11 38.45 35.49l12.28-12c6.76-6.6 25.56-24.9 41.78-40.67 16.68-16.22 31.01-29.34 32.99-30.21 1.92-0.85 4.51-1.56 5.75-1.58zm201.75 183.07c4.4-0.06 12.05 0.39 17 0.99 4.95 0.61 13.05 2.12 18 3.36 4.95 1.24 13.05 4.15 18 6.46 4.95 2.31 12.82 6.75 17.5 9.87 4.67 3.11 12.26 9.27 16.86 13.68 4.6 4.42 11.07 11.63 14.38 16.03 3.3 4.4 8.65 13.4 11.88 20 3.67 7.48 6.82 15.76 8.39 22 1.39 5.5 2.96 14.72 3.49 20.5 0.63 6.77 0.64 14.41 0.01 21.5-0.52 6.05-2.11 15.5-3.52 21-1.46 5.69-4.86 14.74-7.9 21-2.96 6.11-8.66 15.44-12.82 21-4.12 5.5-10.81 13.09-14.88 16.86-4.07 3.77-10.99 9.26-15.39 12.19-4.4 2.93-12.28 7.35-17.5 9.82-5.23 2.48-13.33 5.62-18 6.97-4.68 1.36-11.99 2.96-16.25 3.56-4.26 0.61-12.36 1.1-18 1.11-5.64 0-14.53-0.71-19.75-1.59-5.23-0.88-13.55-2.93-18.5-4.57-4.95-1.63-13.05-5.01-18-7.51-4.95-2.5-12.35-6.86-16.44-9.69-4.08-2.83-10.83-8.53-15-12.66-4.16-4.13-9.91-10.65-12.78-14.5-2.87-3.84-7.46-11.27-10.19-16.49-2.73-5.23-6.32-13.55-7.98-18.5-1.66-4.95-3.77-13.28-4.68-18.5-1.26-7.23-1.53-13.2-1.15-25 0.39-12.01 1.06-17.64 2.97-25 1.35-5.23 4.32-13.78 6.58-19 2.27-5.23 6.78-13.55 10.03-18.5 3.24-4.95 8.99-12.33 12.77-16.39 3.78-4.07 11.37-10.76 16.87-14.88 5.56-4.17 14.88-9.86 21-12.82 6.05-2.94 14.6-6.32 19-7.53 4.4-1.2 12.05-2.74 17-3.43 4.95-0.68 12.6-1.28 17-1.34zm-19.78 79.14l0.78 24.75c-48.62 0-52.59 0.22-54 1.57-1.41 1.35-1.63 4.08-1.57 19 0.05 14.09 0.36 17.72 1.57 18.93 1.17 1.18 4.36 1.51 14.75 1.56 7.29 0.03 18.65 0.29 25.25 0.59 7.46 0.33 12.28 0.97 12.73 1.69 0.41 0.64 0.74 11.96 0.74 25.16-0.01 18.04 0.31 24.31 1.26 25.27 0.93 0.93 6.07 1.26 19.32 1.25 13.1-0.02 18.38-0.36 19.26-1.27 0.9-0.92 1.22-8 1.2-26.5l-0.01-25.25c32.94-0.08 44.52-0.35 47-0.66 2.47-0.3 5.3-1.29 6.28-2.19 1.57-1.46 1.78-3.58 1.76-18.15-0.02-13.01-0.35-16.98-1.53-18.75-1.5-2.24-1.66-2.25-27.51-2.25h-26c0.03-45.22-0.28-51.81-1.24-52.77-0.93-0.93-6.09-1.26-19.46-1.25-17.74 0.02-18.25 0.08-19.78 2.27-1.38 1.98-1.48 5.26-0.8 27z"/>
</svg>