<svg version="1.2" xmlns="http://www.w3.org/2000/svg" viewBox="0 0 32 32" width="32" height="32">
	<style>
		.s0 { fill: #ffffff } 
	</style>
	<path class="s0" d="m29 11v2q-0.01 0.41-0.29 0.71-0.3 0.28-0.71 0.29-0.41-0.01-0.71-0.29-0.28-0.3-0.29-0.71v-2h-10.67q-0.16 0-0.32-0.03-0.16-0.02-0.31-0.07-0.15-0.05-0.29-0.13-0.15-0.07-0.28-0.17l-3.46-2.6h-6.67v17h9q0.41 0.01 0.71 0.29 0.28 0.3 0.29 0.71-0.01 0.41-0.29 0.71-0.3 0.28-0.71 0.29h-9q-0.4 0-0.77-0.15-0.36-0.16-0.64-0.44-0.28-0.28-0.44-0.64-0.15-0.37-0.15-0.77v-17q0-0.4 0.15-0.77 0.16-0.36 0.44-0.64 0.28-0.28 0.64-0.44 0.37-0.15 0.77-0.15h6.67q0.16 0 0.32 0.03 0.16 0.02 0.31 0.07 0.15 0.05 0.29 0.13 0.15 0.07 0.28 0.17l3.46 2.6h10.67q0.4 0 0.77 0.15 0.36 0.16 0.64 0.44 0.28 0.28 0.44 0.64 0.15 0.37 0.15 0.77zm0 10v5q0 0.2-0.08 0.38-0.07 0.19-0.21 0.33-0.14 0.14-0.33 0.21-0.18 0.08-0.38 0.08h-9q-0.2 0-0.38-0.08-0.19-0.07-0.33-0.21-0.14-0.14-0.21-0.33-0.08-0.18-0.08-0.38v-5q0-0.2 0.08-0.38 0.07-0.19 0.21-0.33 0.14-0.14 0.33-0.21 0.18-0.08 0.38-0.08h1v-0.5c0-0.93 0.37-1.82 1.03-2.47 0.65-0.66 1.54-1.03 2.47-1.03 0.93 0 1.82 0.37 2.47 1.03 0.66 0.65 1.03 1.54 1.03 2.47v0.5h1q0.2 0 0.38 0.08 0.19 0.07 0.33 0.21 0.14 0.14 0.21 0.33 0.08 0.18 0.08 0.38zm-7-1h3v-0.5c0-0.4-0.16-0.78-0.44-1.06-0.28-0.28-0.66-0.44-1.06-0.44-0.4 0-0.78 0.16-1.06 0.44-0.28 0.28-0.44 0.66-0.44 1.06zm5 2h-7v3h7z"/>
</svg>