<svg version="1.2" xmlns="http://www.w3.org/2000/svg" viewBox="0 0 600 600" width="32" height="32">
	<style>
		.s0 { fill: #000000 } 
		.s1 { fill: #ffffff } 
	</style>
	<g id="Background">
		<path id="Path 0" class="s0" d="m93 78.1c-3.03 1.62-6.98 4.4-8.8 6.17-1.81 1.78-4.63 6.04-6.25 9.48l-2.95 6.25v401c4.6 8.91 7.42 12.94 9.22 14.71 1.8 1.77 5.98 4.59 9.28 6.27l6 3.05h401c8.14-3.9 12.34-6.72 14.58-8.78 2.27-2.08 5.38-6.53 7-10l2.92-6.25v-401c-4.6-8.91-7.42-12.94-9.22-14.71-1.8-1.77-5.98-4.59-9.28-6.27l-6-3.05-402 0.18z"/>
		<path id="Path 1" fill-rule="evenodd" class="s1" d="m280.65 121.5l3.64 2.5c2.21 1.52 4.24 4.07 5.17 6.5 1.26 3.29 1.53 9.71 1.54 68.5l88.75 0.06c66.03 0.04 89.64 0.36 92.22 1.25 2.03 0.7 4.41 2.63 8.09 8.19l-0.03 127.25c-0.03 106.87-0.25 127.69-1.43 130-0.76 1.51-2.39 3.65-3.6 4.75-2.18 1.97-3.81 2-113.85 2.28-92.18 0.22-112.35 0.03-115.65-1.09-2.62-0.9-4.52-2.37-5.5-4.28-1.29-2.5-1.57-15.61-2.5-183.91h-49.67c-49.06 0-49.71-0.03-52.5-2.12-1.56-1.17-3.73-3.34-4.83-4.82-1.95-2.63-2.01-4.52-2.3-71.88-0.2-46.43 0.05-70.33 0.75-72.68 0.58-1.93 1.84-4.52 2.8-5.77 0.96-1.25 3.55-2.92 5.75-3.72 3.37-1.22 14.93-1.42 143.15-1.01zm-123.49 176.5c0.64 0 1.29 1.46 1.46 3.25 0.16 1.79 0.62 5.5 1.01 8.25 0.4 2.75 0.75 5.3 0.8 5.67 0.04 0.36 0.42 1.04 0.85 1.5 0.43 0.46 0.77 1.73 0.77 2.83 0 1.1 1.22 4.44 2.72 7.42 1.69 3.35 5.27 7.75 9.37 11.5 3.67 3.35 8.6 6.79 11 7.67 2.4 0.87 5.71 2.07 7.36 2.65 2.19 0.78 3.34 0.75 4.27-0.09 0.69-0.63 1.26-3.29 1.25-5.9-0.01-2.61 0.43-4.75 0.98-4.75 0.55 0 4.2 2.81 8.12 6.25 3.91 3.44 9.54 8.61 12.5 11.5 4.25 4.14 5.19 5.62 4.49 7-0.49 0.96-5.08 5.57-10.21 10.25-5.13 4.68-10.24 9.49-11.36 10.71-1.12 1.22-2.6 2.23-3.29 2.25-0.85 0.03-1.24-1.63-1.21-5.21 0.03-3.14-0.47-5.67-1.25-6.29-0.71-0.57-3.99-1.91-7.29-2.98-3.3-1.07-7.8-2.92-10-4.12-2.2-1.2-6.59-4.7-9.75-7.77-3.16-3.08-6.83-7.73-8.15-10.34-1.32-2.61-3.11-7.45-3.98-10.75-1.15-4.34-1.59-10.76-1.6-23.25-0.01-12.43 0.3-17.25 1.14-17.25z"/>
		<path id="Path 2" class="s0" d="m139.4 129.77c-0.61 0.4-1.62 1.74-2.25 2.98-0.83 1.63-1.15 20.99-1.15 70.25v68l5 5 96.5-0.5c0.47-21.26 0.31-22.55-1.25-22.91-0.96-0.23-18.18-0.09-38.25 0.31-33.06 0.65-36.74 0.56-39-0.94-1.65-1.09-2.59-2.73-2.75-4.81-0.17-2.19 1.31-6.12 4.87-12.9 2.82-5.36 5.48-10.2 5.91-10.75 0.42-0.55 2.57-4.38 4.76-8.5 2.2-4.13 6.2-11.55 8.9-16.5 2.69-4.95 5.78-10.45 6.86-12.23 1.07-1.78 3.3-3.74 4.95-4.37 2.24-0.85 3.64-0.85 5.5-0.01 1.5 0.68 3.94 3.82 6.12 7.87 2 3.71 6.8 12.59 10.68 19.74 3.88 7.15 7.65 13.84 8.38 14.87 1.24 1.75 1.48 1.62 3.9-2 1.42-2.13 3.67-5.56 5-7.62 1.33-2.06 3.1-3.97 3.92-4.23 0.82-0.26 2.06-2.05 2.75-3.99 0.69-1.94 2.47-4.32 3.96-5.28 2.29-1.48 5.58-1.79 21.5-2l18.79-0.25c0.07-63.14-0.02-64.62-1.97-67.25l-2.03-2.75c-107.34 0.02-139 0.36-139.6 0.77zm107.07 78.48c-0.27 0.69-0.37 58.62-0.23 128.75l0.26 127.5c199.9 0.42 224.16 0.2 224.73-0.77 0.41-0.68 0.75-57.82 0.75-126.98 0.01-81.86-0.33-126.45-0.98-127.75-0.99-1.98-2-2-112.52-2-88.3 0-111.63 0.26-112.01 1.25z"/>
		<path id="Path 3" class="s1" d="m234.5 158.85c-1.1 0.36-3.13 1.39-4.5 2.3-1.38 0.91-3.29 3.27-4.25 5.25-0.96 1.98-1.75 4.95-1.75 6.6 0 1.65 0.68 4.57 1.5 6.5 0.82 1.93 2.74 4.27 4.25 5.21 1.54 0.96 5.28 1.84 8.5 2 5.2 0.26 6.14-0.02 9.8-2.96 2.72-2.19 4.36-4.48 5-7 0.6-2.38 0.6-5.12-0.01-7.5-0.53-2.06-2.21-4.96-3.75-6.44-1.53-1.47-4.03-3.16-5.54-3.75-1.51-0.58-3.76-1.02-5-0.96-1.24 0.05-3.15 0.39-4.25 0.75zm43.97 87.23l-2.7 3.07c0.21 52.47 0.51 58.41 1.73 60.85 1.33 2.67 2 3 6 3 4 0 4.67-0.33 6-3 0.99-1.98 1.5-5.96 1.49-11.75v-8.75c16.76-1.02 20.64-1.77 23.51-3.25 2.2-1.14 5.17-3.35 6.61-4.91 1.43-1.56 3.34-5.2 4.25-8.09 0.9-2.89 1.64-7.05 1.64-9.25 0-2.2-0.34-4.17-0.75-4.38-0.41-0.21-1.05-1.67-1.42-3.25-0.37-1.58-2.4-4.56-4.5-6.63-2.2-2.16-5.85-4.39-8.58-5.25-3.18-1-9.01-1.49-17.67-1.49h-12.92zm59.65-1.53l-2.38 1.57c0.16 57.23 0.47 64.62 1.47 65.46 0.71 0.59 3.1 1.59 5.3 2.23 2.2 0.64 7.26 1.17 11.25 1.18 3.98 0.01 7.42-0.32 7.63-0.74 0.22-0.41 2.47-1.08 5-1.5 2.54-0.41 6.3-1.82 8.37-3.13 2.06-1.32 4.92-3.68 6.36-5.25 1.43-1.58 3.32-4.22 4.2-5.87 0.87-1.65 2.29-5.58 3.14-8.75 0.85-3.16 1.54-8.78 1.52-12.5-0.01-3.71-0.78-9-1.72-11.75-0.93-2.75-3.28-7.41-5.22-10.37-2.43-3.69-4.94-6.09-8.03-7.65-2.48-1.25-6.08-2.76-8-3.36-1.93-0.6-8.68-1.1-15-1.11-8.78-0.02-12.07 0.35-13.89 1.54zm63.41 0.57l-2.98 2.05c0.38 59.6 0.55 62.48 2.17 64.06 0.99 0.95 3.36 1.75 5.29 1.79 1.92 0.04 4.04-0.51 4.7-1.22 0.77-0.84 1.3-6.08 1.5-14.8l0.3-13.5c19.53-0.49 24.48-1.05 25.29-1.8 0.71-0.66 1.3-2.32 1.3-3.7 0-1.37-0.59-3.04-1.3-3.69-0.81-0.75-5.76-1.31-13.29-1.5l-12-0.31v-17c20.46-0.77 26.91-1.45 27.52-2 0.61-0.55 1.13-2.35 1.15-4q0.04-3-2.32-4.79c-2.05-1.56-4.44-1.78-18.35-1.72-14.43 0.07-16.29 0.28-18.98 2.13zm-123.52 105.08c-0.77 0.66-1.31 2.01-1.2 3 0.11 0.99 1.1 2.25 2.2 2.8 1.23 0.62 17.15 1.02 41.25 1.04 38.24 0.03 39.29-0.02 41-2 1.32-1.54 1.5-2.52 0.75-4.04-0.98-1.95-2-2-41.8-2-30.29 0-41.16 0.31-42.2 1.2zm0.46 38.63c-1 1.01-1.76 2.25-1.68 2.75 0.09 0.51 0.95 1.7 1.93 2.65 1.66 1.6 7.29 1.73 79.29 1.76 67.44 0.02 77.79-0.17 79.75-1.48 1.23-0.83 2.26-2.07 2.28-2.76 0.02-0.68-0.77-2.02-1.75-2.97-1.66-1.6-7.31-1.73-79.88-1.75-74.36-0.03-78.2 0.06-79.94 1.8zm0.17 38.42c-1.03 0.71-1.66 2.12-1.46 3.25 0.35 1.98 1.14 2 81.33 2 76.35 0 80.99-0.1 81.23-1.75 0.15-0.96-0.41-2.42-1.23-3.25-1.31-1.3-11.53-1.5-79.78-1.5-60.98 0-78.68 0.28-80.09 1.25z"/>
		<path id="Path 4" class="s0" d="m291.63 254.19c-0.32 0.79-0.48 6.58-0.35 12.87l0.22 11.44c12.09 0 13.68-0.41 16.57-2.59 2.04-1.54 3.95-4.18 4.7-6.5 1.05-3.23 1.03-4.61-0.11-7.91-1.04-3-2.36-4.49-5.28-5.95-2.13-1.08-6.42-2.14-9.53-2.37-4.25-0.32-5.79-0.07-6.22 1.01zm58.97-0.01c-1.79 1.25-1.87 2.63-1.5 24.82l0.4 23.5c6.2 0.5 9.8 0.4 12 0.08 2.47-0.35 5.53-1.84 8-3.9 3.32-2.77 4.3-4.48 5.75-10.01 0.96-3.67 1.75-8.69 1.75-11.17 0-2.48-0.56-6.64-1.25-9.25-0.82-3.13-2.62-6.14-5.25-8.82-2.44-2.49-5.37-4.37-7.5-4.81-1.93-0.4-5.07-0.96-7-1.24-2.07-0.3-4.27 0.03-5.4 0.8z"/>
	</g>
</svg>