<svg version="1.2" xmlns="http://www.w3.org/2000/svg" viewBox="0 0 962 1024" width="32" height="32">
	<style>
		.s0 { fill: #ffffff } 
	</style>
	<path id="Path 0" fill-rule="evenodd" class="s0" d="m482 90.44c9.63 0.12 19.75 0.76 22.5 1.42 2.75 0.66 7.36 2.31 10.25 3.67 2.89 1.36 5.25 2.92 5.25 3.47 0 0.55 0.9 1.22 2 1.5 1.27 0.32 1.73 0.96 1.26 1.75q-0.73 1.24 0.5 0.5c0.8-0.48 2.4 0.77 4.48 3.5 1.78 2.34 4.02 5.15 4.97 6.25 0.95 1.1 1.52 2.34 1.26 2.75-0.26 0.41-0.02 0.75 0.53 0.75 0.55 0 0.77 0.45 0.5 1-0.27 0.55-0.05 1 0.5 1 0.55 0 0.77 0.45 0.5 1-0.27 0.55-0.05 1 0.5 1 0.55 0 0.77 0.45 0.5 1-0.27 0.55-0.05 1 0.5 1 0.55 0 0.77 0.45 0.5 1-0.27 0.55-0.05 1 0.5 1 0.55 0 0.78 0.34 0.52 0.75-0.27 0.41 0.85 2.66 2.5 5 1.64 2.34 2.75 4.25 2.48 4.25-0.27 0 0.4 0.9 1.5 2 1.1 1.1 2 2.45 2 3 0 0.55 0.45 0.78 1 0.5 0.55-0.28 1.45 0.74 1.99 2.25 0.55 1.51 2.68 4.32 8.51 9.75l-3-3.52c-1.65-1.94-0.52-1.03 2.5 2.01 3.06 3.08 8.05 6.75 11.25 8.27 3.16 1.51 6.2 2.74 6.75 2.74 0.55 0 0.77 0.45 0.5 1-0.27 0.55 0.17 0.78 1 0.5 0.83-0.28 1.5-0.16 1.5 0.25 0 0.41 1.24 0.84 2.75 0.95 1.51 0.1 3.42 0.5 4.25 0.87 0.83 0.37 2.85 0.87 4.5 1.12 1.65 0.24 11.1 0.62 21 0.84 14.36 0.31 18.35 0.71 19.75 1.93 0.96 0.85 2.09 1.54 2.5 1.53 0.41 0 1.45 0.78 2.31 1.75 0.85 0.97 2.06 2.66 2.67 3.76 0.75 1.34 1.14 11.96 1.19 32.25 0.05 16.64-0.15 31.38-0.42 32.75-0.27 1.38-0.95 2.28-1.5 2-0.55-0.28-1 0.18-1 1 0 0.82-2.14 2.63-9.5 6.5h-294.5l-4-2.5c-2.2-1.37-4.26-2.16-4.58-1.75-0.32 0.41-0.45 0.3-0.28-0.25 0.17-0.55-0.58-2.33-1.67-3.95-1.83-2.75-1.99-5.03-2.26-32-0.25-24.2-0.04-29.76 1.25-33.3 0.85-2.34 1.99-4.25 2.54-4.25 0.55 0 0.77-0.45 0.5-1-0.27-0.55-0.16-0.91 0.25-0.79 0.41 0.11 2.21-0.57 4-1.5 2.57-1.35 6.86-1.81 20.5-2.19 9.49-0.26 18.94-0.6 21-0.75 2.06-0.15 3.75-0.61 3.75-1.02 0-0.41 0.9-0.53 2-0.25 1.1 0.28 2 0.05 2-0.5 0-0.55 0.9-0.78 2-0.5 1.1 0.28 2 0.05 2-0.5 0-0.55 0.68-0.78 1.5-0.5 0.82 0.28 1.31 0.16 1.07-0.25-0.23-0.41 2.3-1.87 5.62-3.25 3.32-1.37 6.44-3.06 6.93-3.75 0.48-0.69 1.33-1.03 1.88-0.75 0.55 0.28 1.01 0.16 1.02-0.25 0.01-0.41 0.95-1.87 2.09-3.25 1.13-1.37 1.7-1.82 1.25-1-0.45 0.82 1.08-0.3 3.41-2.5 2.32-2.2 4.21-4.45 4.2-5-0.02-0.55 0.89-1.9 2.03-3 1.14-1.1 2.05-2.34 2.03-2.75-0.02-0.41 0.87-1.65 1.97-2.75 1.1-1.1 2-2.68 2-3.5 0-0.82 0.45-1.5 1-1.5 0.55 0 0.77-0.45 0.5-1-0.27-0.55-0.05-1 0.5-1 0.55 0 0.77-0.45 0.5-1-0.27-0.55-0.05-1 0.5-1 0.55 0 1.9-2.47 3-5.5 1.1-3.03 2.45-5.5 3-5.5 0.55 0 0.89-0.4 0.75-0.88-0.14-0.49 2.68-4.06 6.25-7.95 3.57-3.88 6.84-6.86 7.25-6.62 0.41 0.25 0.91-0.11 1.1-0.8 0.19-0.69 3-2.21 6.25-3.39 3.24-1.18 7.7-2.59 9.9-3.15 2.2-0.55 11.88-0.9 21.5-0.77zm-183 92.56v53.5l-21.84 0.5c-15.71 0.36-22.24 0.86-23.25 1.78-0.78 0.7-3.1 1.37-5.16 1.5-2.06 0.12-3.75 0.56-3.75 0.97 0 0.41-0.45 0.53-1 0.25-0.55-0.28-1-0.05-1 0.5 0 0.55-0.45 1-1 1-0.55 0-2.91 0.91-5.25 2.02-2.34 1.11-5.15 2.57-6.25 3.25-1.1 0.68-2.34 1.79-2.75 2.48-0.41 0.69-1.2 1.25-1.75 1.25-0.55 0-2.57 1.8-4.5 4-1.93 2.2-3.95 3.77-4.5 3.5-0.55-0.27-1-0.05-1 0.5 0 0.55 0.04 1.34 0.09 1.75 0.05 0.41-0.63 1.09-1.5 1.5-0.87 0.41-1.6 1.31-1.61 2-0.01 0.69-1.13 2.26-2.5 3.5-1.36 1.24-2.26 2.7-1.98 3.25 0.28 0.55 0.16 1-0.25 1-0.41-0.01-1.6 2.36-2.64 5.25-1.04 2.89-2.48 7.73-3.21 10.75-1.08 4.49-1.32 53.58-1.28 268 0.03 144.38 0.21 263.85 0.4 265.5 0.2 1.65 0.83 4.46 1.42 6.25 0.58 1.79 0.84 3.25 0.56 3.25-0.28 0 0.18 1.01 1.01 2.25 0.83 1.24 1.5 3.04 1.5 4-0.01 0.96 0.78 2.51 1.74 3.43 0.96 0.92 1.75 2.06 1.75 2.54 0 0.47 0.68 1.28 1.5 1.8 0.82 0.52 1.16 0.96 0.75 0.96-0.41 0.01-0.07 0.69 0.75 1.52 0.82 0.83 1.28 1.95 1 2.5-0.28 0.55 0.18 1 1 1 0.82 0 1.48 0.34 1.47 0.75-0.02 0.41 1.78 2.89 4 5.5 2.21 2.61 4.48 4.52 5.03 4.25 0.55-0.27 1-0.05 1 0.5 0 0.55 1.91 2.2 4.25 3.66 2.34 1.46 6.16 3.26 8.5 4 2.34 0.74 4.25 1.79 4.25 2.34 0 0.55 0.45 0.77 1 0.5 0.55-0.27 2.24 0.01 3.75 0.63 1.51 0.63 3.88 1.42 5.25 1.75 1.37 0.34 78.66 0.51 171.75 0.37 149.89-0.22 169.25-0.08 169.25 1.25 0 0.93 0.47 1.21 1.23 0.75 0.87-0.53 1.02-0.24 0.5 1-0.41 0.99-0.29 1.75 0.27 1.75 0.55 0 0.77 0.67 0.5 1.5-0.27 0.83-0.05 1.5 0.5 1.5 0.55 0 1.67 2.14 2.5 4.75 0.82 2.61 1.38 5.01 1.25 5.32-0.14 0.32 0.54 1.33 1.5 2.25 0.96 0.92 1.75 2.35 1.75 3.18 0 0.83 0.45 1.5 1 1.5 0.55 0 0.77 0.45 0.5 1-0.27 0.55-0.16 1 0.25 0.99 0.41 0 1.55 1.46 2.53 3.25 0.98 1.79 3.01 4.68 4.5 6.42 1.5 1.74 3.62 4.42 4.72 5.96 1.1 1.53 2.9 3.71 4 4.84 1.1 1.12 1.89 2.38 1.75 2.79-0.14 0.41 0.45 1.31 1.29 2 0.85 0.69 1.53 1.59 1.5 2-0.02 0.41-85.65 0.61-190.29 0.44-176.99-0.28-190.74-0.42-197.25-2.05-3.85-0.96-7.23-2.06-7.5-2.44-0.28-0.39-1.85-0.85-3.5-1.02-1.65-0.18-3.68-0.97-4.5-1.76-0.82-0.78-1.86-1.09-2.31-0.67-0.44 0.41-1.11 0.3-1.5-0.25-0.38-0.55-4.07-2.67-8.19-4.71-4.13-2.04-8.51-4.63-9.75-5.75-1.24-1.12-2.49-1.7-2.78-1.29-0.29 0.41-0.51 0.19-0.5-0.5 0.02-0.69-0.65-1.25-1.47-1.25-0.82 0-1.73-0.67-2-1.5-0.28-0.83-0.95-1.27-1.5-1-0.55 0.27-1.9-0.63-3-2-1.1-1.38-2.23-2.5-2.5-2.5-0.28 0-1.85-1.58-3.5-3.5-1.88-2.19-3.46-3.22-4.24-2.75q-1.23 0.74-0.5-0.5c0.45-0.75-0.06-1.75-1.26-2.5-1.11-0.69-2.01-1.81-2-2.5 0-0.69-0.9-1.7-2-2.25-1.1-0.55-2-1.67-2-2.5 0-0.83-0.68-1.73-1.5-2-0.82-0.27-1.28-0.95-1-1.5 0.27-0.55-0.23-1.34-1.13-1.75-0.9-0.41-2.81-3.16-4.25-6.11-1.44-2.95-3.41-6.21-4.37-7.25-0.96-1.04-1.53-1.89-1.25-1.89 0.27 0-0.05-1.01-0.71-2.25-0.67-1.24-1.12-2.59-1-3 0.11-0.41-0.13-0.75-0.54-0.75-0.41 0-0.84-1.01-0.96-2.25-0.12-1.24-0.68-2.36-1.25-2.5-0.57-0.14-0.82-0.7-0.54-1.25 0.27-0.55-0.06-1.7-0.75-2.54-0.69-0.85-0.8-1.51-0.25-1.46 0.59 0.05 0.54-0.44-0.13-1.21-0.62-0.71-1.83-4.21-2.7-7.79-0.86-3.58-2.06-11-2.66-16.5-0.78-7.09-1-86.56-0.76-273 0.34-260.53 0.37-263.08 2.39-272 1.12-4.95 2.44-9.68 2.93-10.5 0.5-0.82 1.02-1.84 1.16-2.25 0.15-0.41 0.3-0.86 0.34-1 0.05-0.14 0.29-1.38 0.55-2.75 0.26-1.38 1.02-3.45 1.68-4.61 0.66-1.17 2.66-4.88 4.45-8.25 1.79-3.38 3.02-6.14 2.75-6.14-0.28 0 0.18-0.79 1-1.75 0.82-0.96 2.4-2.76 3.5-4 1.1-1.24 2.02-2.81 2.04-3.5 0.02-0.69 1.04-2.05 2.25-3.03 1.22-0.98 1.87-1.77 1.46-1.75-0.41 0.02 0.88-1.66 2.87-3.72 1.99-2.06 4.8-5.26 6.25-7.12 1.45-1.85 4.09-3.98 5.88-4.75 1.79-0.76 3.02-1.83 2.75-2.38-0.28-0.55 0.51-1.53 1.75-2.18 1.24-0.65 2.83-1.66 3.53-2.25 0.71-0.59 1.95-1.63 2.75-2.32 0.81-0.69 1.47-1.03 1.47-0.75 0 0.28 2.14-0.94 4.75-2.69 2.61-1.76 7.13-4.12 10.03-5.25 2.91-1.13 4.94-2.43 4.5-2.88-0.43-0.45-0.1-0.54 0.72-0.19 0.82 0.35 3.19-0.29 5.25-1.43 2.06-1.13 3.73-1.72 3.71-1.31-0.03 0.41 0.67 0.07 1.54-0.75 0.87-0.82 1.55-1.05 1.5-0.5-0.05 0.55 0.62 0.32 1.48-0.5 0.86-0.82 1.89-1.17 2.29-0.76 0.4 0.41 1.18 0.32 1.73-0.19 0.55-0.52 3.25-1.21 6-1.54 2.75-0.34 7.47-0.85 10.5-1.14 3.02-0.3 5.69-0.73 5.92-0.95 0.23-0.23 9.11-0.42 39.08-0.42zm437.44 513.5c6.8 0 11.85 0.36 11.21 0.8-0.63 0.44 1.21 0.67 4.1 0.5 2.89-0.16 5.25 0.04 5.25 0.45 0 0.41 1.01 0.76 2.25 0.77 1.24 0.01 5.4 0.68 9.25 1.5 3.85 0.81 7.11 1.93 7.25 2.48 0.14 0.55 0.92 0.77 1.75 0.5 0.83-0.27 1.5-0.05 1.5 0.5 0 0.58 0.94 0.7 2.25 0.29 1.63-0.52 2.04-0.38 1.5 0.5-0.54 0.88-0.13 1.01 1.5 0.5 1.63-0.52 2.04-0.38 1.5 0.5q-0.73 1.2 0.75 0.71c0.83-0.27 1.5-0.05 1.5 0.5 0 0.55 0.45 0.77 1 0.5 0.55-0.27 0.99 0.06 0.97 0.75-0.01 0.69 0.32 0.93 0.75 0.53 0.43-0.39 2.58 0.26 4.78 1.46 2.2 1.19 4.26 2.19 4.57 2.21 0.32 0.03 1.33 0.84 2.25 1.8 0.96 1 2.21 1.43 2.92 1q1.23-0.74 0.5 0.5c-0.46 0.77-0.17 1.25 0.76 1.25 0.83 0 1.5 0.45 1.5 1 0 0.55 0.67 1 1.5 1 0.83 0 2.11 0.56 2.86 1.25 0.75 0.69 2.77 2.49 4.5 4 1.73 1.51 3.38 2.41 3.67 2 0.29-0.41 0.51-0.19 0.5 0.5-0.02 0.69 4.22 5.41 9.42 10.5 5.19 5.09 9.26 9.48 9.05 9.75-0.22 0.27 0.48 1.17 1.56 2 1.08 0.83 1.96 2.06 1.95 2.75-0.01 0.69 0.44 1.02 0.99 0.75 0.55-0.27 1-0.05 1 0.5 0 0.55 0.11 1.47 0.25 2.04 0.14 0.57 0.7 1.35 1.25 1.75 0.55 0.39 1.77 2.06 2.7 3.71 0.94 1.65 2.62 4.69 3.75 6.75 1.13 2.06 1.71 3.76 1.3 3.77-0.41 0-0.19 0.34 0.49 0.75 0.68 0.4 1.48 1.85 1.77 3.23 0.3 1.37 0.91 2.95 1.35 3.5 0.44 0.55 1.76 4.37 2.93 8.5 1.17 4.12 2.43 9.3 2.81 11.5 0.38 2.2 1.19 4.32 1.79 4.71q1.11 0.71 0.11 1.74c-0.55 0.57-0.82 2.27-0.59 3.79 0.36 2.46 0.49 2.54 1.16 0.76 0.41-1.1 0.57 1.37 0.35 5.5-0.27 5.14-0.11 6.71 0.5 5 0.61-1.75 0.86 0.35 0.73 16.5l-0.72-7c-0.58-5.66-0.67-4.71-0.48 5 0.12 6.6-0.08 11.1-0.46 10-0.59-1.75-0.73-1.66-1.08 0.76-0.23 1.52 0.04 3.22 0.59 3.79q1.01 1.03-0.5 1.92c-1.02 0.6-1.26 1.55-0.75 2.96 0.41 1.14 0.38 2.18-0.06 2.32-0.45 0.14-1.59 3.4-2.52 7.25-0.94 3.85-2.15 7.11-2.69 7.25-0.55 0.14-0.67 1.24-0.27 2.5 0.58 1.83 0.44 2.06-0.74 1.25-1.07-0.74-1.25-0.67-0.71 0.25 0.41 0.69 0.06 2.26-0.77 3.5-0.82 1.24-1.16 2.6-0.75 3.03 0.42 0.43 0.2 0.76-0.49 0.75-0.69-0.02-1.02 0.42-0.75 0.97 0.27 0.55 0.05 1-0.5 1-0.55 0-0.77 0.45-0.5 1 0.27 0.55 0.05 1-0.5 1-0.55 0-1.51 1.46-2.14 3.25-0.63 1.79-1.04 3.7-0.92 4.25 0.12 0.55-0.15 0.66-0.61 0.24-0.45-0.42-2.04 1.16-3.53 3.5-1.48 2.34-2.38 4.71-2.01 5.26 0.41 0.59 0.19 0.7-0.55 0.25-0.71-0.43-1.67-0.1-2.24 0.75-0.55 0.83-0.79 1.84-0.54 2.25 0.26 0.41-0.63 1.42-1.96 2.25-1.33 0.83-2.22 1.73-1.98 2 0.25 0.27-2.31 2.98-5.68 6-3.37 3.02-6.73 6.74-7.48 8.25-0.75 1.51-2.15 2.75-3.11 2.75-0.96-0.01-2.31 0.89-3 2-0.69 1.1-1.48 1.77-1.75 1.5-0.27-0.27-1.74 0.64-3.25 2.03-1.51 1.4-3.09 2.52-3.5 2.5-0.41-0.01-2.66 1.26-5 2.84-2.34 1.57-7.06 4.27-10.5 6-3.44 1.72-6.38 3.02-6.54 2.88-0.17-0.14-1.4 0.48-2.75 1.36-1.35 0.89-3.92 1.9-5.71 2.25-1.79 0.35-3.41 0.53-3.6 0.39-0.19-0.14-1.09 0.31-2 1-0.91 0.69-2.1 1.02-2.65 0.75-0.55-0.27-1-0.05-1 0.5 0 0.55-2.48 1.23-5.5 1.5-3.02 0.27-5.5 0.95-5.5 1.5q0 1-3 0c-2.34-0.78-3.32-0.67-4.43 0.5-1.13 1.18-4.18 1.5-14.5 1.5-10.28 0-13.39-0.32-14.57-1.5-0.84-0.84-2.27-1.23-3.25-0.88-0.96 0.35-2.65 0.3-3.75-0.11-1.1-0.41-3.8-0.92-6-1.14-2.2-0.21-6.92-1.35-10.5-2.51-3.58-1.16-8.52-3.01-11-4.11-2.48-1.1-5.17-2.1-6-2.24-0.83-0.13-2.63-0.83-4-1.55-1.38-0.72-3.06-1.9-3.75-2.63-0.69-0.73-1.92-1.33-2.75-1.33-0.83 0-1.73-0.67-2-1.5-0.27-0.83-2.64-2.47-5.25-3.65-2.61-1.18-6.07-3.54-7.68-5.25-1.61-1.7-2.55-2.43-2.09-1.6 0.47 0.83-1.64-0.98-4.69-4-3.04-3.02-8.18-8.17-11.41-11.43-3.23-3.26-5.21-5.58-4.38-5.17 0.83 0.41 0.26-0.19-1.25-1.33-1.51-1.14-2.52-2.52-2.25-3.07 0.27-0.55 0.05-1-0.5-1-0.55 0-1.7-1.69-2.56-3.75-0.86-2.06-1.94-3.98-2.39-4.25-0.46-0.27-2.41-3.2-4.35-6.5-1.94-3.3-3.79-7.24-4.11-8.75-0.32-1.51-1.12-2.75-1.76-2.75-0.64 0-0.86-0.23-0.5-0.5 0.37-0.27 0-2.08-0.83-4-0.83-1.92-1.16-3.51-0.75-3.52 0.41 0 0.19-0.34-0.5-0.75-0.68-0.4-1.36-2.19-1.5-3.98-0.14-1.78-0.59-3.25-1-3.25-0.41 0-0.64-1.07-0.5-2.38 0.14-1.31-0.17-2.1-0.69-1.75-0.54 0.37-0.75-0.73-0.5-2.61 0.24-1.78-0.01-3.39-0.56-3.58-0.63-0.22-1-8.81-1-23.05 0-13.99 0.38-22.98 1-23.42 0.55-0.39 1.1-2.73 1.22-5.21 0.12-2.48 0.68-4.61 1.25-4.75 0.57-0.14 0.8-0.92 0.53-1.75-0.27-0.83-0.05-1.73 0.5-2 0.55-0.27 0.77-0.95 0.5-1.5-0.27-0.55 0.4-3.02 1.5-5.5 1.1-2.48 1.66-4.51 1.25-4.52-0.41 0-0.3-0.34 0.25-0.75 0.55-0.4 2.33-3.65 3.96-7.23 1.62-3.58 3.52-6.95 4.21-7.5 0.69-0.55 1.27-1.34 1.29-1.75 0.02-0.41 1.15-2.21 2.51-4 1.36-1.79 2.49-3.81 2.5-4.5 0.02-0.69 0.48-1.25 1.03-1.25 0.55 0 1-0.67 1-1.5 0-0.83 1.01-2.18 2.25-3.01 1.24-0.83 1.96-1.5 1.6-1.5-0.36 0.01 3.69-4.27 9-9.5 5.31-5.23 10.32-10.17 11.15-10.97 0.83-0.81 1.95-1.47 2.5-1.48 0.55-0.01 1.67-0.9 2.5-1.98 0.83-1.08 1.84-1.75 2.25-1.51 0.41 0.25 1.76-0.46 3-1.57 1.24-1.11 2.81-2.01 3.5-2 0.69 0.01 1.24-0.54 1.22-1.23-0.01-0.69 0.21-0.91 0.5-0.5 0.29 0.41 1.22 0.19 2.06-0.5 0.85-0.69 2.2-1.81 3-2.5 0.81-0.69 1.71-0.91 2-0.5 0.29 0.41 0.51 0.19 0.5-0.5-0.02-0.69 0.42-1.02 0.97-0.75 0.55 0.27 1 0.05 1-0.5 0-0.55 0.56-0.72 1.25-0.39 0.69 0.34 2.49-0.33 4-1.5 1.51-1.16 3.42-1.88 4.25-1.61 0.83 0.27 1.5 0.05 1.5-0.5 0-0.55 0.67-0.77 1.5-0.5 0.83 0.27 1.61 0 1.75-0.62 0.14-0.61 1.67-1.18 3.4-1.25 1.74-0.07 3.01-0.36 2.82-0.63-0.18-0.27 2.46-1.06 5.85-1.74 3.4-0.68 7.19-1.24 8.43-1.25 1.24-0.01 2.25-0.46 2.25-1.01 0-0.61 1.07-0.7 2.75-0.22 1.51 0.42 4.1 0.59 5.75 0.38 2.2-0.29 2.54-0.57 1.29-1.03-0.94-0.35 3.85-0.63 10.65-0.63zm-71.53 131.32c0.04 13.68 0.4 19.02 1.32 19.95 1 0.99 16.53 1.27 73.27 1.29 66.49 0.03 72.11-0.1 73.5-1.67 1.24-1.4 1.46-4.89 1.26-19.79-0.2-15.75-0.46-18.33-2-19.88-1.66-1.68-5.95-1.78-72.94-1.75-63.31 0.03-71.36 0.2-72.82 1.6-1.41 1.35-1.64 4.18-1.59 20.25zm20.84-644.53c11.96 0.26 23.33 0.74 25.25 1.06 1.92 0.32 4.85 0.83 6.5 1.12 1.65 0.3 3.9 0.73 5 0.98 1.1 0.24 2.8 0.69 3.79 0.99 0.98 0.31 2.1 0.61 2.5 0.68 0.39 0.06 1.05 0.06 1.46 0 0.41-0.07 3.67 1.23 7.25 2.88 3.58 1.65 6.95 2.78 7.5 2.5 0.55-0.27 0.99-0.16 0.97 0.25-0.01 0.41 2.35 1.88 5.25 3.25 2.9 1.38 6.08 3.18 7.06 4 0.98 0.82 2 1.39 2.25 1.25 0.26-0.14 1.4 0.76 2.55 2 1.14 1.24 1.78 1.57 1.42 0.75q-0.64-1.48 0.68 0.21c0.72 0.94 1.88 1.73 2.57 1.75 0.69 0.02 1.59 0.65 2 1.39 0.41 0.75 1.76 1.87 3 2.5 1.24 0.63 2.02 1.38 1.75 1.65-0.27 0.28 2.54 3.25 6.25 6.61 3.71 3.36 7.31 7.19 8 8.5 0.69 1.32 1.7 2.39 2.25 2.39 0.55 0 1 0.68 1 1.5 0 0.82 0.57 1.84 1.26 2.25 0.69 0.41 2.16 2.49 3.25 4.61 1.09 2.12 2.55 4.04 3.24 4.25 0.69 0.21 1.04 0.73 0.79 1.14-0.25 0.41 0.72 3 2.15 5.75 1.42 2.75 2.87 5.23 3.2 5.5 0.34 0.28 1.45 2.75 2.47 5.5 1.03 2.75 2.67 7.93 3.65 11.5 0.98 3.57 2.14 8.75 2.59 11.5 0.44 2.75 0.93 97.93 1.09 211.5 0.16 113.58-0.04 206.01-0.45 205.4-0.41-0.6-1.98-1.39-3.49-1.75-1.51-0.36-2.52-1.1-2.25-1.65 0.27-0.55-0.4-1-1.5-1-1.1 0-2.67-0.67-3.5-1.5-0.83-0.83-1.74-1.16-2.03-0.75-0.29 0.41-0.51 0.19-0.5-0.5 0.02-0.69-0.42-1.02-0.97-0.75-0.55 0.27-1 0.16-1-0.25 0-0.41-1.01-0.84-2.25-0.96-1.24-0.12-2.36-0.68-2.5-1.25-0.14-0.57-1.15-1.49-2.25-2.04-1.52-0.76-1.84-0.7-1.33 0.25 0.37 0.69-0.35 0.35-1.61-0.75-1.29-1.13-3.71-2-5.57-2-1.89 0-3.01-0.41-2.64-0.96 0.38-0.57-0.17-0.71-1.35-0.34-1.16 0.37-3.04-0.07-4.48-1.03-1.41-0.95-2.17-1.13-1.75-0.42 0.57 0.98 0.25 1-1.52 0.11-1.24-0.63-3.38-1.32-4.75-1.54-1.38-0.22-3.29-0.39-4.25-0.36-1.66 0.04-1.75-9.72-1.77-191.21-0.01-164.52-0.22-192.23-1.49-198.25-0.81-3.85-2.49-9.82-3.73-13.27-1.24-3.45-2.6-6.26-3.01-6.25-0.41 0.01-0.74-0.54-0.73-1.23 0.01-0.69-0.89-2.26-2-3.5-1.11-1.24-2.02-2.7-2.02-3.25 0-0.55-2.32-3.36-5.15-6.25-2.83-2.89-5.56-5.25-6.08-5.25-0.51 0-1.46-0.72-2.1-1.6-0.64-0.88-2.18-1.9-3.42-2.25-1.24-0.36-2.25-1.1-2.25-1.65 0-0.55-2.14-1.76-4.75-2.7-2.61-0.93-5.08-2.17-5.48-2.75-0.41-0.58-0.75-0.71-0.75-0.3-0.01 0.41-2.83-0.21-6.27-1.38-5.3-1.8-9.52-2.22-49.25-3.37l-0.25-25.75c-0.16-16.67 0.1-25.75 0.75-25.75 0.55 0 0.77-0.49 0.5-1.1-0.36-0.79 5.64-0.96 21.25-0.61zm-88.33 169.69c2.24-0.01 5.43 0.47 7.08 1.06 1.65 0.59 4.72 3.19 6.82 5.77 3.69 4.52 3.81 4.9 3.32 10.69-0.46 5.45-0.87 6.34-4.57 9.75-2.24 2.06-4.52 3.52-5.07 3.25-0.55-0.27-1-0.05-1 0.5 0 0.56-2.67 1-6 1q-6 0-10-2c-3.55-1.77-4.31-1.84-6.75-0.62-1.51 0.76-3.31 2.11-4 3-0.69 0.89-1.81 1.32-2.5 0.96-0.69-0.36-0.91-0.36-0.5 0 0.41 0.36-0.26 1.73-1.5 3.03-1.24 1.3-2.77 3.44-3.41 4.75-0.64 1.31-1.49 3.28-1.89 4.38-0.41 1.1-0.9 5.49-1.09 9.75-0.22 4.74 0.03 7.75 0.64 7.75 0.55 0 0.75 0.79 0.45 1.75-0.31 0.96 0.23 3.55 1.19 5.75 0.95 2.2 1.8 4.23 1.89 4.5 0.08 0.27 0.39 1.18 0.68 2 0.3 0.83 1.95 5.77 3.67 11 1.73 5.23 3.32 10.18 3.55 11 0.23 0.83 0.45 1.61 0.49 1.75 0.05 0.14 0.31 0.7 0.58 1.25 0.27 0.55 0.5 1.23 0.5 1.5 0 0.27 0.15 0.84 0.34 1.25 0.18 0.41 0.63 1.43 1 2.25 0.37 0.83 2.8 8.16 5.41 16.3 2.61 8.14 5.09 14.44 5.51 14 0.42-0.44 0.44 0.33 0.04 1.7-0.59 2.05-0.46 2.32 0.72 1.5 1.16-0.8 1.29-0.61 0.68 1-0.41 1.1-0.51 2.79-0.23 3.75 0.33 1.07 1.01 1.46 1.76 1 0.87-0.53 1.02-0.24 0.5 1q-0.72 1.74 0.77 2.25c0.83 0.27 1.29 0.84 1.04 1.25-0.26 0.41 0.53 1.33 1.75 2.04 1.65 0.96 2.95 3.88 5.11 11.5 1.6 5.61 3.96 12.23 5.25 14.71 1.3 2.48 2.35 5.06 2.35 5.75 0 0.69 0.45 1.02 1 0.75 0.55-0.27 1-0.05 1 0.5 0 0.55 1.69 2.33 3.75 3.96 2.06 1.63 4.87 3.24 6.25 3.59 1.37 0.34 3.85 0.75 5.5 0.91 1.65 0.15 4.69-0.56 6.75-1.59 2.06-1.03 3.74-1.53 3.73-1.12-0.01 0.41 1.36-0.6 3.06-2.25 1.69-1.65 4.24-5.02 5.67-7.5 1.43-2.48 2.65-4.95 2.72-5.5 0.07-0.55 0.42-1.45 0.77-2 0.36-0.55 0.91-2.35 1.22-4 0.32-1.65 1.17-5.25 1.89-8 0.72-2.75 1.96-5.96 2.75-7.14 0.79-1.18 2.68-3.1 4.19-4.25 1.51-1.16 2.52-2.56 2.25-3.11-0.27-0.55 0.04-0.89 0.7-0.75 0.67 0.14 1.24-0.43 1.28-1.25 0.04-0.82 1.73-6.67 3.75-13 2.02-6.32 4.45-13.3 5.41-15.5 0.95-2.2 1.65-4.56 1.54-5.25-0.1-0.69 0.27-1.25 0.82-1.25 0.55 0 1.31-1.46 1.69-3.25 0.38-1.79 0.83-3.59 1-4 0.17-0.41 0.31-0.98 0.31-1.25 0-0.27 0.15-0.84 0.33-1.25 0.19-0.41 0.86-1.99 1.5-3.5 0.65-1.51 1.17-3.2 1.17-3.75 0-0.55 0.56-0.99 1.25-0.97 0.69 0.01 0.92-0.32 0.51-0.75-0.41-0.43-0.32-1.23 0.2-1.78 0.51-0.55 1.15-2.12 1.41-3.5 0.27-1.37 0.55-2.5 0.62-2.5 0.08 0 0.28-1.12 0.45-2.5 0.17-1.37 1.03-4.07 1.91-6 0.88-1.93 2.34-6.42 3.24-10 1.12-4.43 1.43-8.25 0.99-12-0.36-3.02-1.77-7.86-3.12-10.75-1.35-2.89-2.23-5.25-1.96-5.25 0.27 0-0.51-1.01-1.75-2.25-1.24-1.24-2.59-2.25-3-2.25-0.41 0-0.71-0.45-0.66-1 0.05-0.55-0.63-1.34-1.5-1.75-0.87-0.41-1.93-0.79-2.34-0.85-0.41-0.05-1.54-0.5-2.5-1-0.96-0.49-1.74-0.56-1.74-0.15 0.01 0.41-1.45 1.27-3.25 1.9-1.79 0.63-5.4 1.19-8.01 1.25-2.61 0.05-5.76-0.4-7-1.02-1.24-0.62-3.5-2.31-5.02-3.75-1.53-1.45-2.76-3.42-2.75-4.38 0.01-0.96-0.32-1.75-0.73-1.75-0.41 0.01-0.86-2.02-1-4.5-0.18-3.28 0.38-5.51 2.08-8.25 1.27-2.06 3.97-4.76 6-6 2.58-1.58 5.22-2.25 8.92-2.24 3.48 0 6.26 0.65 8.25 1.94 1.65 1.07 3.34 1.74 3.75 1.49 0.41-0.24 0.64 0.11 0.5 0.77-0.14 0.67 0.76 1.68 2 2.25 1.24 0.57 2.26 1.38 2.25 1.79 0 0.41 0.79 0.76 1.75 0.76 0.96 0.01 3.77 0.99 6.25 2.19 2.48 1.19 4.82 2.64 5.21 3.23 0.4 0.59 1.11 1.07 1.58 1.07 0.47 0 3.19 2.36 6.04 5.25 2.84 2.89 5.17 5.7 5.17 6.25 0 0.55 1.24 2.59 2.75 4.52 1.51 1.94 2.41 3.74 2 4-0.41 0.27-0.04 1.27 0.82 2.23 0.87 0.96 1.32 2.31 1 3-0.31 0.69-0.12 1.25 0.43 1.25 0.55 0 0.93 0.79 0.85 1.75-0.09 0.96 0.25 2.65 0.75 3.75 0.49 1.1 0.9 5.46 0.9 9.7 0 4.55-0.49 8.23-1.19 9-0.65 0.71-0.97 1.75-0.71 2.3 0.27 0.55-0.06 2.35-0.72 4-0.65 1.65-1.26 3.45-1.34 4-0.09 0.55-0.44 1.68-0.79 2.5-0.36 0.83-3.45 10.05-6.88 20.5-3.43 10.45-6.89 19.45-7.69 20-0.93 0.64-1.23 1.81-0.82 3.25 0.39 1.36 0.24 2.05-0.36 1.75-0.55-0.27-1.29 0.96-1.64 2.75-0.36 1.79-2.64 9.33-5.08 16.75-3.38 10.29-4.49 15.28-4.67 21-0.14 4.13-0.78 8.51-1.43 9.75-0.65 1.24-0.95 2.25-0.68 2.25 0.27 0 0.17 0.56-0.22 1.25-0.4 0.69-0.85 2.26-1 3.5-0.16 1.24-0.93 3.26-1.73 4.5-0.8 1.24-1.47 2.59-1.5 3-0.03 0.41-0.61 2.11-1.3 3.78-0.69 1.67-1.62 2.68-2.07 2.25-0.45-0.43-0.57 0.01-0.25 0.97 0.37 1.14 0.05 1.75-0.93 1.75-0.83 0-1.27 0.45-1 1 0.27 0.55-0.4 1.67-1.5 2.5-1.1 0.83-2 2.17-2 3 0 0.83-0.67 1.5-1.5 1.5-0.83 0-1.52 0.34-1.54 0.75-0.02 0.41-1.67 2.55-3.65 4.75-1.99 2.2-3.28 3.33-2.88 2.5 0.4-0.83-0.1-0.58-1.1 0.53-1.01 1.12-5.1 3.6-9.1 5.5-6.16 2.94-7.28 3.85-7.29 5.97-0.01 1.38-0.18 4.98-0.4 8-0.21 3.02-0.66 8.2-1 11.5-0.35 3.3-1.3 8.92-2.12 12.5-0.83 3.58-1.48 7.29-1.46 8.25 0.02 0.96-0.41 1.98-0.96 2.25-0.55 0.27-0.77 0.95-0.5 1.5 0.27 0.55-0.06 1.7-0.75 2.54-0.69 0.85-0.8 1.51-0.25 1.47 0.55-0.04 0.1 0.92-1 2.13-1.1 1.21-1.44 1.9-0.75 1.53 0.69-0.37 1.25-0.22 1.25 0.33 0 0.55-0.34 1-0.75 1-0.41 0-1.82 3.03-3.12 6.75-1.3 3.71-3.55 9.35-5 12.54-1.45 3.18-2.97 5.77-3.38 5.75-0.41-0.02-0.52 0.41-0.25 0.96 0.27 0.55 0.05 1-0.5 1-0.56 0-0.68 0.76-0.27 1.75 0.52 1.24 0.37 1.53-0.5 1-0.81-0.5-1.65 0.35-2.47 2.5-0.68 1.79-1.24 3.57-1.25 3.95 0 0.39-0.58 1.29-1.28 2-0.69 0.72-1.26 1.86-1.25 2.55 0.01 0.69-0.43 1.25-0.98 1.25-0.55 0-1 0.67-1 1.5 0 0.83-0.45 1.27-1 1-0.55-0.27-1 0.4-1 1.5 0 1.1-0.45 1.77-1 1.5-0.55-0.27-1.21 0.29-1.46 1.25-0.25 0.96-1.37 2.88-2.48 4.25-1.11 1.38-3.49 4.04-5.29 5.92-1.8 1.88-2.37 2.82-1.27 2.1 1.1-0.72 0.2 0.36-2 2.41-2.2 2.04-3.33 3.35-2.5 2.91 0.83-0.44-2.89 3.58-8.25 8.93-5.36 5.35-10.65 9.96-11.75 10.23-1.1 0.27-1.89 1-1.75 1.62 0.14 0.61-0.65 1.27-1.75 1.47-1.1 0.19-2.34 1.04-2.75 1.88-0.41 0.84-1.42 1.53-2.25 1.53-0.83 0-1.73 0.9-2 2-0.27 1.1-0.95 1.77-1.5 1.5-0.55-0.27-1.23 0.06-1.51 0.75-0.28 0.69-1.07 1.28-1.75 1.33-0.68 0.04-2.48 0.82-3.99 1.75-1.51 0.92-2.75 2.12-2.75 2.67 0 0.55-0.45 0.77-1 0.5-0.55-0.27-1.44 0.29-1.97 1.25-0.53 0.96-0.98 1.41-1 1-0.02-0.41-1.83 0.38-4.03 1.75-2.2 1.38-4.24 2.16-4.53 1.75-0.29-0.41-0.5-0.08-0.47 0.75 0.03 0.83-0.18 1.16-0.47 0.75-0.29-0.41-1.2-0.08-2.03 0.75-0.83 0.83-1.95 1.27-2.5 1-0.55-0.27-1-0.05-1 0.5 0 0.55-1.69 1.54-3.75 2.2-2.06 0.67-4.09 1.12-4.5 1-0.41-0.11-0.75 0.25-0.75 0.8 0 0.55-0.56 0.85-1.25 0.66-0.69-0.18-1.85 0.38-2.57 1.25-1.04 1.24-1.16 1.26-0.58 0.09 0.48-0.96-0.09-0.78-1.6 0.5-1.29 1.1-2.04 1.44-1.67 0.75 0.54-1 0.22-1-1.58 0-1.24 0.69-2.54 1.7-2.89 2.25-0.35 0.55-1.14 0.66-1.75 0.25-0.61-0.41-1.1-0.41-1.09 0 0.01 0.41-1.9 1.17-4.25 1.69-2.35 0.52-4.95 0.97-5.77 1-0.82 0.03-1.73 0.4-2 0.81-0.27 0.42-2.63 0.87-5.24 1-2.61 0.14-4.75 0.59-4.75 1-0.01 0.41-1.25 0.65-2.76 0.54-1.51-0.12-3.43 0.17-4.25 0.64-0.82 0.48-6 1.12-11.5 1.43-5.5 0.3-13.15 0.56-17 0.56-3.85 0-12.18-0.29-18.5-0.65-6.71-0.39-11.6-1.1-11.75-1.72-0.14-0.58-0.7-0.82-1.25-0.55-0.55 0.27-4.26-0.01-8.25-0.63-3.99-0.62-8.38-1.59-9.75-2.16-1.38-0.57-2.84-0.96-3.25-0.87-0.41 0.09-1.99-0.32-3.5-0.91-1.51-0.59-2.86-1.04-3-1-0.14 0.04-1.82-0.6-3.75-1.43-1.93-0.83-3.48-1.16-3.46-0.75 0.03 0.41-0.67 0.08-1.54-0.75-0.87-0.83-1.56-1.05-1.53-0.5 0.04 0.55-0.51 0.43-1.2-0.27-0.7-0.69-1.95-1.25-2.77-1.23-0.82 0.02-2.4-0.76-3.5-1.73-1.1-0.97-2.45-1.82-3-1.88-0.55-0.06-2.01-0.4-3.25-0.75-1.24-0.35-2.24-0.98-2.23-1.39 0.01-0.41-2.46-1.76-5.5-3-3.04-1.24-5.52-2.7-5.52-3.25 0-0.55-0.45-0.77-1-0.5-0.55 0.27-1.45-0.17-2-1-0.55-0.83-1.45-1.27-2-1-0.55 0.27-1 0.05-1-0.5 0-0.55-1.46-1.77-3.25-2.71-1.79-0.93-3.59-1.61-4-1.5-0.41 0.12-0.64-0.35-0.5-1.04 0.14-0.72-0.59-1.15-1.75-1.02-1.1 0.13-1.66 0.02-1.25-0.25 0.41-0.26 0.07-1.15-0.75-1.98-0.82-0.83-1.84-1.28-2.25-1-0.41 0.27-1.31-0.4-2-1.5-0.69-1.1-1.7-2-2.25-2-0.55 0-2.35-1.24-3.99-2.75-1.65-1.51-7.5-7.14-13-12.5-5.51-5.36-10.24-10.65-10.51-11.75-0.27-1.1-1.18-2-2-2-0.82 0-1.83-0.56-2.24-1.25-0.52-0.89-0.31-1.01 0.75-0.42 0.82 0.46 0.25-0.33-1.26-1.75-1.51-1.42-2.75-2.81-2.75-3.08 0-0.27-2.01-3.31-4.46-6.75-2.45-3.44-4.48-6.7-4.5-7.25-0.02-0.55-1.27-2.34-2.79-3.98-1.51-1.63-2.55-2.98-2.31-3 0.25-0.01-1.72-4.52-4.37-10.02-2.64-5.5-5.18-10.9-5.63-12-0.45-1.1-1.86-5.37-3.13-9.5-1.27-4.12-2.65-7.61-3.06-7.75-0.41-0.14-0.52-1.15-0.25-2.25 0.27-1.1 0.05-2-0.5-2-0.55 0-0.77-0.9-0.5-2 0.27-1.1 0.05-2-0.5-2-0.55 0-0.77-0.9-0.5-2 0.27-1.1 0.05-2-0.5-2-0.55 0-0.99-0.79-0.98-1.75 0.01-1.5 0.15-1.53 0.98-0.25q0.97 1.5 0.98 0.25c0.01-0.69-0.66-1.92-1.48-2.75-0.82-0.83-1.51-2.51-1.51-3.75-0.01-1.24-0.28-4.05-0.6-6.25-0.32-2.2-0.84-6.7-1.15-10-0.32-3.3-0.58-10.73-0.59-16.5-0.01-5.77 0.28-13.65 0.63-17.5 0.36-3.85 0.66-8.24 0.68-9.75 0.02-1.51 0.83-3.97 1.79-5.46 0.97-1.51 1.2-2.4 0.5-2-0.72 0.41-1.24 0.18-1.22-0.54 0.01-0.69 0.8-2.05 1.75-3.03 1.12-1.16 1.28-1.77 0.47-1.75-0.69 0.02-1.25-0.64-1.25-1.47 0-0.83 0.79-1.75 1.75-2.05 1.51-0.48 1.55-0.68 0.25-1.5-1.33-0.84-1.33-1.05 0-1.86 0.94-0.57 1.22-1.51 0.75-2.5-0.42-0.89-0.31-1.59 0.25-1.59 0.55 0 1-0.67 1-1.5 0-0.83 1.57-6.45 3.5-12.5 1.93-6.05 3.84-11 4.25-11 0.41 0 0.78-0.56 0.82-1.25 0.04-0.69 2.29-5.71 5-11.16 2.71-5.45 5.38-10.74 5.93-11.75 0.55-1.02 1.56-1.85 2.25-1.84 0.69 0 1.17-0.34 1.08-0.75-0.1-0.41 0.46-2 1.25-3.53 0.78-1.53 1.76-2.76 2.17-2.75 0.41 0.02 0.73-0.53 0.7-1.22-0.02-0.69 0.99-2.06 2.25-3.05 1.27-0.98 1.62-1.5 0.8-1.14-0.82 0.36-0.15-0.55 1.5-2.02 1.65-1.48 2.32-2.39 1.5-2.04-0.82 0.36-0.49-0.28 0.75-1.42 1.24-1.15 2.25-2.31 2.25-2.58 0-0.27 1.01-1.68 2.25-3.13 1.24-1.45 5.8-6.28 10.15-10.75 4.34-4.47 7.33-7.22 6.64-6.12-0.7 1.1 0.25 0.33 2.1-1.71 1.85-2.05 3.92-3.73 4.61-3.75 0.69-0.02 1.25-0.49 1.25-1.04 0-0.55 0.9-1.23 2-1.5 1.1-0.27 1.77-0.95 1.5-1.5-0.27-0.55 0.4-1.23 1.5-1.5 1.1-0.27 2-0.95 2-1.5 0-0.55 3.49-3.13 7.75-5.74 4.26-2.61 8.09-4.63 8.5-4.5 0.41 0.13 0.75-0.32 0.75-1.01 0-0.69 0.56-1.3 1.25-1.36 0.69-0.05 2.94-0.84 5-1.75 2.06-0.9 3.52-2.09 3.25-2.64-0.3-0.6 0.2-0.71 1.25-0.27 1.24 0.52 1.53 0.37 1-0.5-0.41-0.68-0.3-1.34 0.25-1.48 0.55-0.14 1.56-0.25 2.25-0.25 0.69 0 1.48-0.27 1.75-0.59 0.27-0.33 4.1-2.03 8.5-3.8 4.4-1.76 11.37-4.06 15.5-5.1 5.72-1.45 7.69-1.62 8.29-0.71 0.44 0.66 0.55 3.11 0.25 5.45-0.3 2.4-0.11 4.47 0.46 4.75 0.55 0.27 0.77 1.18 0.5 2-0.27 0.83 0.02 1.5 0.67 1.5 0.64 0 0.86 0.23 0.5 0.5-0.37 0.27 0.21 2.19 1.29 4.25 1.07 2.06 1.81 3.98 1.62 4.25-0.18 0.27-2.07 0.88-4.21 1.34-2.13 0.46-4.45 1.36-5.16 2-0.74 0.66-1.26 0.73-1.21 0.16 0.05-0.55-0.63-0.32-1.5 0.5-0.87 0.83-1.55 1.05-1.5 0.5 0.05-0.55-0.69-0.32-1.65 0.5-0.99 0.86-1.44 0.96-1.04 0.25 0.55-1 0.24-1-1.56 0-1.24 0.69-2.54 1.7-2.89 2.25q-0.64 1-1.99 0c-0.98-0.73-1.15-0.66-0.61 0.25q0.75 1.25-2.01 1.87c-1.51 0.34-6.57 2.7-11.25 5.24-4.68 2.55-9.74 5.19-11.25 5.88-1.51 0.7-2.98 1.94-3.25 2.76-0.27 0.83-1.4 1.5-2.5 1.5-1.1 0-1.77 0.45-1.5 1 0.27 0.55-0.4 1.45-1.5 2-1.1 0.55-3.19 2.01-4.64 3.25-1.45 1.24-3.98 3.6-5.61 5.25-1.64 1.65-2.62 2.33-2.18 1.5 0.44-0.82-1.76 0.98-4.9 4-3.14 3.02-5.7 5.61-5.69 5.75 0.01 0.14 0.58-0.05 1.27-0.41 0.69-0.36 0.12 0.52-1.25 1.97-1.38 1.45-2.84 2.42-3.25 2.16-0.41-0.26-1.2 0.88-1.75 2.53-0.55 1.65-1.68 3-2.5 3-0.83 0-1.5 0.89-1.5 2 0 1.11-0.67 2-1.5 2-0.89 0-1.3 0.61-1 1.5 0.27 0.83 0.16 1.48-0.25 1.46-0.41-0.02-2.52 2.79-4.68 6.25-2.17 3.46-4.2 6.52-4.53 6.79-0.33 0.27-1.47 2.52-2.54 5-1.07 2.48-2.24 4.73-2.61 5-0.37 0.27-1.39 2.19-2.28 4.25-0.88 2.06-1.27 3.99-0.86 4.28 0.41 0.29 0.07 0.5-0.75 0.47-0.82-0.03-1.17 0.29-0.76 0.72 0.41 0.43 0.19 1.36-0.5 2.07-0.68 0.72-0.79 1.29-0.24 1.27 0.55-0.02 0.43 0.3-0.27 0.71-0.7 0.4-2.43 4.78-3.85 9.73-1.43 4.95-3.44 13.5-4.47 19-1.04 5.5-2.14 12.7-2.45 16-0.32 3.3-0.55 10.27-0.53 15.5 0.03 5.23 0.28 12.42 0.57 16 0.28 3.58 1.19 9.88 2.01 14 0.82 4.13 1.27 8.06 0.99 8.75-0.27 0.69-0.07 1.36 0.47 1.5 0.53 0.14 1.09 1.83 1.25 3.75 0.15 1.92 0.55 3.73 0.87 4 0.33 0.27 1.61 3.88 2.85 8 1.23 4.13 2.99 8.36 3.9 9.42 1.32 1.53 1.35 1.77 0.16 1.18-0.82-0.41-0.6-0.03 0.5 0.84 1.1 0.88 1.66 1.59 1.25 1.58-0.41-0.01 0.65 2.57 2.36 5.73 1.72 3.16 4.3 8 5.75 10.75 1.45 2.75 2.98 5.11 3.39 5.25 0.41 0.14 0.75 0.92 0.75 1.75 0 0.83 0.34 1.5 0.75 1.5 0.41-0.01 1.87 1.79 3.25 4 1.37 2.21 3.18 4.04 4 4.08q1.46 0.08 0.25 0.5c-0.76 0.25 0.33 1.89 2.78 4.17 2.22 2.06 4 3.98 3.97 4.25-0.03 0.27 2.6 3.2 5.85 6.5 3.24 3.3 7.64 7.56 9.77 9.46 2.14 1.9 4.25 3.48 4.71 3.5 0.46 0.02 1.49 0.94 2.29 2.04 0.81 1.1 1.56 1.78 1.67 1.51 0.12-0.27 2.4 1.08 5.07 3 2.68 1.92 5.15 3.34 5.5 3.15 0.35-0.18 0.87 0.05 1.14 0.5 0.27 0.46 1.4 1.41 2.5 2.11 1.1 0.7 3.57 1.99 5.5 2.86 1.93 0.88 3.83 2.11 4.23 2.73 0.41 0.63 0.73 0.69 0.72 0.14-0.01-0.55 0.79-0.27 1.77 0.61 0.98 0.89 3.93 2.47 6.56 3.5 2.63 1.04 4.77 2.23 4.75 2.64-0.01 0.41 0.31 0.65 0.72 0.54 0.41-0.12 3.8 0.67 7.52 1.75 3.73 1.08 6.77 2.3 6.75 2.71-0.01 0.41 0.88 0.52 1.98 0.25 1.1-0.27 2-0.05 2 0.5 0 0.55 0.79 0.73 1.75 0.39 0.96-0.34 2.09-0.11 2.5 0.5 0.41 0.61 1.43 0.88 2.25 0.61 0.82-0.27 2.18 0.17 3 1 0.82 0.83 2.29 1.47 3.25 1.43 1.5-0.06 1.46-0.2-0.25-0.93-1.71-0.73-1.75-0.87-0.25-0.93 0.96-0.04 1.98 0.38 2.25 0.93 0.27 0.55 1.51 0.73 2.75 0.39 1.3-0.34 3.42 0.08 5 1 1.51 0.89 2.75 1.16 2.75 0.61 0-0.55 1.24-1.01 2.75-1.02 1.51-0.01 3.33 0.56 4.05 1.25 0.89 0.87 4.73 1.27 12.09 1.27 7.38 0 11.25-0.41 12.21-1.28 0.99-0.9 2.87-1.07 6.4-0.56 4.17 0.59 4.83 0.48 4-0.68-0.82-1.14-0.42-1.26 2.25-0.68 2.04 0.44 3.53 0.28 4-0.42 0.41-0.62 1.75-0.96 2.98-0.75 1.23 0.2 2.24 0.03 2.25-0.38 0.01-0.41 1.14-0.64 2.5-0.5 1.36 0.14 2.49-0.09 2.5-0.5 0.01-0.41 0.92-0.52 2.02-0.25 1.1 0.27 2 0.05 2-0.5 0-0.55 0.79-0.93 1.75-0.85 0.96 0.09 2.43-0.12 3.25-0.47 0.82-0.34 4.87-1.8 9-3.24 4.12-1.43 9.65-3.59 12.27-4.78 2.63-1.19 4.77-2.5 4.75-2.91-0.01-0.41 0.43-0.52 0.98-0.25 0.55 0.27 1 0.05 1-0.5 0-0.55 0.56-0.98 1.25-0.97 0.69 0.02 2.49-0.88 4-2 1.51-1.11 2.75-1.8 2.75-1.53 0 0.27 2.92-1.52 6.5-4 3.58-2.48 6.95-4.5 7.5-4.5 0.55 0 1.23-0.67 1.5-1.5 0.27-0.83 1.06-1.5 1.75-1.5 0.69 0.01 1.81-0.89 2.5-2 0.69-1.1 1.59-1.77 2-1.49 0.41 0.28 2.26-1.19 4.11-3.25 1.85-2.07 3.88-3.76 4.5-3.76 0.63 0 1.14-0.52 1.14-1.15 0-0.63 3.04-4.34 6.75-8.25 3.71-3.9 7.09-7.09 7.5-7.08 0.41 0.01 1.54-1.56 2.5-3.5 0.96-1.94 2.2-3.52 2.75-3.52 0.55 0 1-0.45 1-1 0-0.55 1.43-3.14 3.18-5.75 1.76-2.61 3.49-4.98 3.86-5.25 0.38-0.27 1.4-1.85 2.29-3.5 0.88-1.65 1.28-3.35 0.89-3.78-0.4-0.43-0.05-0.75 0.78-0.72 0.83 0.03 1.16-0.29 0.75-0.72-0.41-0.43 0.27-1.4 1.5-2.16 1.88-1.15 2-1.52 0.75-2.24-1.22-0.69-1.12-0.87 0.5-0.94 1.42-0.07 1.56-0.25 0.5-0.63-1.09-0.38-1.17-0.7-0.29-1.17 0.66-0.35 2.82-5.14 4.78-10.64 1.97-5.5 4.42-13.6 5.45-18 1.03-4.4 2.37-11.37 2.98-15.5 0.61-4.12 1.22-10.31 1.35-13.74 0.13-3.44-0.11-6.25-0.52-6.25-0.41-0.01-0.41-0.57 0-1.25 0.45-0.74 0.35-0.95-0.25-0.53-0.55 0.39-3.02-0.23-5.5-1.39-2.48-1.15-5.74-2.94-7.25-3.97-1.51-1.03-2.75-1.64-2.75-1.37 0 0.27-1.69-1.21-3.75-3.3-2.06-2.09-2.85-2.66 0.25 1.3l-2.72-2.5c-1.5-1.37-2.52-2.73-2.28-3 0.25-0.27-0.89-1.74-2.52-3.25-1.64-1.51-2.75-3.2-2.48-3.75 0.27-0.55-0.17-1.23-1-1.5-0.83-0.27-1.27-0.95-1-1.5 0.27-0.55-0.17-1.23-1-1.5-0.83-0.27-1.5-1.4-1.5-2.5 0-1.1-0.6-2.56-1.33-3.25-0.74-0.69-1.92-3.05-2.63-5.25-0.72-2.2-1.66-4.45-2.1-5-0.43-0.55-0.95-2.12-1.14-3.5-0.19-1.37-0.68-3.06-1.08-3.75-0.39-0.69-0.49-1.7-0.22-2.25 0.27-0.55 0.05-1.23-0.5-1.5-0.56-0.28-0.85-3.05-0.66-6.25 0.2-3.21-0.25-7.41-1-9.5-0.73-2.06-1.11-4.2-0.84-4.75 0.27-0.55 0.16-0.99-0.25-0.98-0.41 0.02-1.31-1.78-2-4-0.69-2.21-1.02-4.47-0.75-5.02 0.27-0.55 0.05-1-0.5-1-0.55 0-1.74-3.04-2.65-6.75-0.91-3.71-1.7-7.2-1.75-7.75-0.06-0.55-0.33-1.23-0.6-1.5-0.27-0.27-1.06-1.51-1.75-2.75-1-1.8-1-2.12 0-1.58 0.69 0.37 0.35-0.38-0.75-1.67-1.1-1.29-1.44-2.04-0.75-1.67 0.69 0.37 1.25 0.22 1.25-0.33 0-0.55-0.67-1.23-1.5-1.5-0.83-0.27-1.45-0.84-1.38-1.25 0.06-0.41 0.06-1.09 0-1.5-0.07-0.41-0.26-1.09-0.43-1.5-0.17-0.41-0.66-2.32-1.1-4.25-0.44-1.92-1.4-4.85-2.14-6.5-0.73-1.65-2.7-7.5-4.37-13-1.68-5.5-3.18-10.9-3.34-12-0.16-1.1-0.62-2.56-1.02-3.25-0.4-0.69-1.01-4.74-1.37-9-0.41-4.81-0.19-10.21 0.59-14.25 0.68-3.57 2.25-8.52 3.49-11 1.24-2.48 3.09-6.07 4.11-8 1.02-1.92 3.02-4.96 4.44-6.75 1.42-1.79 3.13-3.25 3.8-3.25 0.67 0 2.46-1.12 3.97-2.49 1.51-1.36 3.09-2.26 3.5-2 0.41 0.27 0.75 0.04 0.75-0.51 0-0.55 1.91-1.72 4.25-2.59 2.34-0.88 4.29-1.44 4.35-1.25 0.05 0.19 0.86-0.33 1.79-1.16 0.93-0.82 1.66-1.05 1.62-0.5-0.04 0.55 0.73 0.21 1.71-0.75 0.98-0.97 2.13-1.42 2.56-1 0.43 0.41 0.76 0.19 0.75-0.5-0.02-0.69 0.98-1.53 2.22-1.87 1.24-0.33 2.55-0.67 2.92-0.75 0.36-0.07 1-0.47 1.41-0.88 0.42-0.41 2.59-0.76 4.84-0.77zm-160.42 12.27c2.48 0.41 5.74 1.2 7.25 1.75 1.51 0.55 2.52 1.45 2.25 2-0.27 0.55 0.06 0.99 0.75 0.97 0.69-0.02 2.49 1.33 4 3 1.51 1.67 2.75 3.71 2.75 4.53 0 0.83 0.45 1.27 1 1 0.55-0.27 1.23 0.63 1.5 2 0.27 1.38 0.27 2.95 0 3.5-0.27 0.55 0.06 1 0.75 0.99 0.93 0 1.11 1.71 0.69 6.75-0.41 4.96-1.38 8.22-3.64 12.26-1.69 3.02-3.9 5.95-4.91 6.5-1.01 0.55-2.3 1.5-2.87 2.12-0.56 0.62-2.48 1.63-4.27 2.25-1.79 0.62-3.81 0.79-4.49 0.38-0.73-0.44-0.97-0.34-0.59 0.25 0.38 0.58-0.77 1.1-2.76 1.25-1.88 0.14-4.31-0.2-5.41-0.75-1.51-0.76-1.82-0.7-1.25 0.23 0.55 0.9 0.22 1.01-1.25 0.4-1.1-0.45-2.68-0.97-3.5-1.15-0.83-0.18-1.84-0.36-2.25-0.4-0.41-0.05-0.52-0.53-0.25-1.08 0.27-0.55-0.18-0.77-1-0.5-0.83 0.27-1.5 0.05-1.5-0.5 0-0.55-0.56-0.99-1.25-0.97-0.69 0.01-2.26-1.12-3.5-2.5-1.31-1.48-1.94-3.05-1.5-3.77q0.74-1.23-0.5-0.5-1.25 0.74-2.4-2.51c-0.63-1.79-1.31-3.59-1.5-4-0.19-0.41-0.4-0.86-0.45-1-0.06-0.14-0.17-3.33-0.25-7.1-0.08-3.76 0.19-7.02 0.6-7.25 0.41-0.22 0.52-0.85 0.25-1.4-0.27-0.55 0.17-1.68 1-2.5 0.82-0.82 1.29-1.84 1.03-2.25-0.26-0.41 0.75-2.14 2.25-3.83 1.49-1.7 3.39-3.33 4.22-3.62 0.82-0.3 1.95-0.68 2.5-0.85 0.55-0.17 1.5-0.93 2.11-1.69 0.61-0.75 1.85-1.12 2.75-0.82 0.9 0.31 1.64 0.11 1.64-0.44 0-0.55 1.69-1.11 3.75-1.25 2.06-0.14 5.77 0.09 8.25 0.5zm82.58 138.75c0.78 0 1.42 0.45 1.42 1 0 0.62 0.85 0.68 2.25 0.15 1.61-0.62 3.25-0.3 5.75 1.1 1.92 1.07 4.33 2.69 5.35 3.6 1.02 0.91 2.46 2.78 3.19 4.15 0.75 1.41 1.25 5.02 1.15 8.28-0.13 3.88-0.68 6.09-1.69 6.73-0.83 0.53-1.27 0.99-1 1.02 0.27 0.03-4.84 5.55-11.37 12.27-6.52 6.71-12.26 12.09-12.75 11.95-0.48-0.14-0.77 0.22-0.63 0.79 0.14 0.57-1.55 2.31-3.75 3.86-2.2 1.54-3.9 3.21-3.77 3.71 0.12 0.49-4.83 5.57-11 11.28-6.18 5.72-13.14 12.58-15.48 15.25-2.34 2.68-4.7 4.63-5.25 4.36-0.55-0.27-1.34 0.06-1.75 0.74q-0.74 1.23 0.5 0.5c0.69-0.41 1.26-0.63 1.28-0.49 0.02 0.14-0.96 1.15-2.17 2.25-1.21 1.1-1.79 1.33-1.28 0.51 0.51-0.81-7.07 6.5-16.83 16.25-9.76 9.76-17.76 17.4-17.77 16.99 0-0.41-0.34-0.15-0.75 0.58-0.4 0.72-2.98 1.56-5.73 1.85-3.61 0.38-6.19 0.01-9.25-1.33-2.34-1.02-4.26-2.19-4.25-2.6 0-0.41-6.19-6.94-13.75-14.5-7.56-7.56-18.02-17.78-23.25-22.71-5.22-4.92-9.6-9.65-9.73-10.5-0.13-0.85-0.66-1.77-1.17-2.04-0.52-0.27-1.46-1.85-2.1-3.5-0.63-1.65-0.89-4.91-0.57-7.25 0.4-3.01 0.93-4.03 1.8-3.5 0.87 0.53 1.02 0.24 0.5-1-0.4-0.96-0.39-1.56 0.02-1.32 0.41 0.24 1.65-0.9 2.75-2.52 1.28-1.88 3.45-3.34 6-4.03 2.2-0.6 6.02-0.84 8.5-0.54 2.48 0.31 4.83 1.14 5.23 1.86 0.41 0.71 0.74 0.85 0.74 0.3 0-0.55 1.56 0.58 3.48 2.5 1.91 1.92 3.27 3.84 3.02 4.25-0.26 0.41-0.11 0.64 0.33 0.5 0.45-0.14 5.83 4.7 11.97 10.75 6.13 6.05 10.95 11.34 10.69 11.75-0.25 0.41 0.07 0.64 0.72 0.5 0.65-0.14 1.78 0.99 2.5 2.5 0.73 1.51 1.88 2.74 2.57 2.73 0.69-0.01 3.73-2.38 6.75-5.26 3.02-2.88 9.1-9.06 13.5-13.73 4.4-4.67 7.33-7.59 6.52-6.49-0.81 1.1 3.24-2.46 9-7.92 5.77-5.45 14.31-13.78 18.99-18.5 4.67-4.72 15-14.88 22.94-22.58 7.95-7.7 14.13-13.44 13.75-12.75-0.39 0.69-0.25 1.25 0.3 1.25 0.55 0 1.26-0.67 1.58-1.5 0.33-0.82 1.23-1.5 2-1.5z"/>
</svg>