<svg version="1.2" xmlns="http://www.w3.org/2000/svg" viewBox="0 0 32 32" width="32" height="32">
	<style>
		.s0 { fill: #ffffff } 
	</style>
	<path class="s0" d="m27 9h-10.67l-3.46-2.6q-0.13-0.1-0.28-0.17-0.14-0.08-0.29-0.13-0.15-0.05-0.31-0.07-0.16-0.03-0.32-0.03h-6.67q-0.4 0-0.77 0.15-0.36 0.16-0.64 0.44-0.28 0.28-0.44 0.64-0.15 0.37-0.15 0.77v17q0 0.4 0.15 0.77 0.16 0.36 0.44 0.64 0.28 0.28 0.64 0.44 0.37 0.15 0.77 0.15h22.11q0.38 0 0.72-0.14 0.35-0.15 0.62-0.41 0.26-0.27 0.41-0.62 0.14-0.34 0.14-0.72v-14.11q0-0.4-0.15-0.77-0.16-0.36-0.44-0.64-0.28-0.28-0.64-0.44-0.37-0.15-0.77-0.15zm0 16h-22v-17h6.67l3.73 2.8q0.06 0.05 0.14 0.09 0.07 0.03 0.14 0.06 0.08 0.02 0.16 0.04 0.08 0.01 0.16 0.01h11zm-7-7q0 0.2-0.08 0.38-0.07 0.19-0.21 0.33-0.14 0.14-0.33 0.21-0.18 0.08-0.38 0.08h-2v2q-0.01 0.41-0.29 0.71-0.3 0.28-0.71 0.29-0.41-0.01-0.71-0.29-0.28-0.3-0.29-0.71v-2h-2q-0.41-0.01-0.71-0.29-0.28-0.3-0.29-0.71 0.01-0.41 0.29-0.71 0.3-0.28 0.71-0.29h2v-2q0.01-0.41 0.29-0.71 0.3-0.28 0.71-0.29 0.41 0.01 0.71 0.29 0.28 0.3 0.29 0.71v2h2q0.2 0 0.38 0.08 0.19 0.07 0.33 0.21 0.14 0.14 0.21 0.33 0.08 0.18 0.08 0.38z"/>
</svg>