<svg version="1.2" xmlns="http://www.w3.org/2000/svg" viewBox="0 0 256 256" width="32" height="32">
	<style>
		.s0 { fill: #ffffff } 
	</style>
	<path id="Path 0" fill-rule="evenodd" class="s0" d="m69.5 28.11c26.11-0.04 31.32 0.19 33 1.46 1.1 0.83 5.99 5.2 10.87 9.72 4.88 4.51 10.73 10.14 17.13 16.77l34.5-0.02c18.97-0.02 36.07 0.39 38 0.9 1.93 0.51 4.96 2.53 6.75 4.49 1.79 1.96 4.15 5.37 5.25 7.57 1.81 3.63 2 6 2 47h-14l-0.04-12.25c-0.03-6.74-0.59-14.3-1.25-16.8-0.67-2.5-2.09-5.87-3.16-7.5-1.07-1.62-3.1-4.01-4.5-5.3-1.4-1.3-4.69-3.44-7.3-4.75-4.74-2.39-4.84-2.4-73.75-2.4l-10.25-9.89c-5.64-5.43-12.16-11.51-18.75-17.11h-54l0.03-3.25c0.02-1.79 0.58-3.96 1.25-4.84 0.67-0.87 2.57-2.07 4.22-2.67 1.9-0.68 14.38-1.1 34-1.13zm-18.5 15.94c31.22-0.08 31.53-0.06 34.57 2.18 1.69 1.25 4.85 4.07 7.03 6.27 2.17 2.2 7.42 7.26 19.4 18.5l34.25 0.01c33.89 0.01 34.3 0.03 39.25 2.37 2.75 1.29 5.97 3.43 7.14 4.74 1.18 1.31 3.1 4.18 4.26 6.38 1.16 2.2 2.11 4.56 2.1 5.25 0 0.99-19.37 1.25-187 1.25l-0.01-20.25c0-17 0.25-20.62 1.6-22.57 0.89-1.28 2.58-2.71 3.76-3.19 1.18-0.47 16.32-0.9 33.65-0.94zm-39.02 50.95h187.02v21h-26.5c-24.33 0-26.87 0.16-31 2-3.71 1.65-4.93 2.92-6.98 7.25-2.44 5.18-2.48 5.62-2.52 58.75l-119.5-0.5zm132.05 25l45.74-0.03c44.45-0.04 45.81 0.02 48.48 2 1.51 1.11 3.43 3.38 4.25 5.03 1.25 2.5 1.5 8.89 1.5 38 0 32.84-0.11 34.97-1.75 34.53-0.96-0.25-6.81-3.85-13-8-6.19-4.14-11.81-7.51-12.5-7.49-0.69 0.02-4.96 3.4-9.5 7.5-4.54 4.1-8.7 7.46-9.25 7.46-0.55 0-3.43-4.16-6.41-9.25-2.98-5.09-6.15-9.93-7.05-10.75-0.89-0.82-1.61-1.84-1.58-2.25 0.02-0.41-1.87-3.69-4.21-7.29-2.34-3.6-4.92-6.53-5.75-6.51-0.82 0.01-9.25 8.02-35.95 35.55l0.45-72.67zm46.84 30.75c-0.62 2.07-0.87 4.88-0.56 6.25 0.31 1.38 1.49 3.74 2.63 5.25 1.13 1.52 3.97 3.49 6.31 4.39 3.93 1.51 4.6 1.51 9 0 3.32-1.15 5.34-2.61 6.72-4.89 1.18-1.95 1.97-5.03 1.96-7.75 0-3.94-0.49-4.96-3.96-8.25-3.44-3.24-4.61-3.75-8.72-3.75-3.41 0-5.81 0.7-8.5 2.5-2.53 1.68-4.12 3.73-4.88 6.25zm-18.04 17.25c0.29 0 4.2 5.97 8.69 13.25 4.5 7.29 9.1 14.83 10.24 16.75 1.14 1.93 2.89 4.31 3.9 5.28 1.77 1.71 1.97 1.68 5.25-1 1.88-1.52 5.26-4.35 7.5-6.28 2.25-1.93 5.1-4.29 6.34-5.25 2.14-1.66 2.4-1.66 5.5 0.05 1.78 0.99 7.86 4.82 23.75 15.2l-0.27 6.75c-0.19 4.93-0.82 7.56-2.36 9.75-1.28 1.84-3.41 3.3-5.48 3.77-1.87 0.42-22.74 0.76-46.39 0.76-26.35 0.01-44.26-0.39-46.25-1.01-2.03-0.63-3.82-2.15-4.75-4.02-0.86-1.71-1.57-6.13-1.83-17.64l17.82-18.18c9.8-10 18.05-18.18 18.34-18.18zm-40.83 20v18l-50.25-0.25c-45.99-0.22-50.59-0.4-54.25-2.05-2.2-1-5.08-2.8-6.39-4-1.31-1.21-3.69-4-5.28-6.2-1.59-2.2-2.88-4.33-2.86-4.75 0.01-0.41 26.8-0.75 119.03-0.75zm72.25-41.93c2.72-0.05 4.43 0.62 6.25 2.43 1.71 1.72 2.5 3.6 2.5 6 0 2.19-0.85 4.5-2.25 6.14-1.8 2.1-3.16 2.64-6.75 2.69-2.48 0.02-5.07-0.26-5.75-0.64-0.69-0.38-1.93-2.26-2.75-4.19-1.15-2.66-1.26-4.33-0.5-7 0.59-2.08 1.91-3.88 3.25-4.43 1.23-0.52 3.93-0.97 6-1z"/>
</svg>